<svg xmlns="http://www.w3.org/2000/svg" width="805" height="600"><rect width="805" height="600" x="0" y="0" fill="#FFFFFF" id="background"/><g transform="translate(402.5,300)" id="viz"><path fill="#17becf" display="" d="M0.999992072947904,-191.3307201165001A191.33333333333334,191.33333333333334,0,0,1,10.916354861191024,-191.0216679881866L5.021182289822058,-96.536170282733A96.66666666666667,96.66666666666667,0,0,0,0.9999920729479188,-96.66149419649216Z"><title>South Asia</title></path><path fill="#8c564b" display="" d="M12.912457560791125,-190.8971264429751A191.33333333333334,191.33333333333334,0,0,1,13.804040476224193,-190.83472669033594L6.748959549971838,-96.43078341192344Z"><title>North Africa</title></path><path fill="#9467bd" display="" d="M15.798031369653577,-190.68001114245794A191.33333333333334,191.33333333333334,0,0,1,73.8152335373685,-176.52126144538L36.83644280962894,-89.37293172755038A96.66666666666667,96.66666666666667,0,0,0,8.474572738516523,-96.29447575714839Z"><title>Latin America and the Caribbean</title></path><path fill="#cccccc" display="" d="M75.6563310649244,-175.74004670034375A191.33333333333334,191.33333333333334,0,0,1,82.23379087986345,-172.76008822054743L41.09939148956895,-87.49448247536294A96.66666666666667,96.66666666666667,0,0,0,38.67754033718488,-88.59171698251413Z"><title>Western Asia</title></path><path fill="#1f77b4" display="" d="M84.03511393942519,-171.8910819956413A191.33333333333334,191.33333333333334,0,0,1,127.33682697421429,-142.80678184380272L63.96379965630935,-72.4781124062428A96.66666666666667,96.66666666666667,0,0,0,42.90071454913072,-86.62547625045676Z"><title>Australasia</title></path><path fill="#cccccc" display="" d="M128.82259198929867,-141.4679618768968A191.33333333333334,191.33333333333334,0,0,1,181.12005895259514,61.67632195140138L91.6649446663629,30.69173119517815A96.66666666666667,96.66666666666667,0,0,0,65.44956467139373,-71.13929243933691Z"><title>Western Europe</title></path><path fill="#d62728" display="" d="M180.46547780780074,63.566152660410594A191.33333333333334,191.33333333333334,0,0,1,-8.642921058172046,191.1380243698952L-3.87229748143159,96.58907679784369A96.66666666666667,96.66666666666667,0,0,0,91.01036352156852,32.58156190418736Z"><title>Eastern Europe</title></path><path fill="#e377c2" display="" d="M-10.64036420104737,191.03724007144135A191.33333333333334,191.33333333333334,0,0,1,-174.89796963957332,77.58314675494505L-88.16130023073066,39.64882830641296A96.66666666666667,96.66666666666667,0,0,0,-5.8697406243069565,96.48829249938983Z"><title>Northern America</title></path><path fill="#cccccc" display="" d="M-175.69937088422418,75.75074597211754A191.33333333333334,191.33333333333334,0,0,1,-180.80889988981914,62.58263469268294L-91.18641053032121,32.08555717203879A96.66666666666667,96.66666666666667,0,0,0,-88.96270147538154,37.816427523585496Z"><title>Sub-Saharan Africa</title></path><path fill="#2ca02c" display="" d="M-181.45318181929204,60.689268014199996A191.33333333333334,191.33333333333334,0,0,1,-189.9271609859747,-23.1542213052414L-96.01485040642187,-11.206825860915158A96.66666666666667,96.66666666666667,0,0,0,-91.83069245979408,30.192190493555884Z"><title>East Asia</title></path><path fill="#cccccc" display="" d="M-189.67476004743116,-25.138214841031566A191.33333333333334,191.33333333333334,0,0,1,-153.88473461601916,-113.70106814186839L-78.03965247087419,-57.0460961562632A96.66666666666667,96.66666666666667,0,0,0,-95.76244946787833,-13.190819396705281Z"><title>Southern Europe</title></path><path fill="#7f7f7f" display="" d="M-152.6878404336042,-115.30337301296379A191.33333333333334,191.33333333333334,0,0,1,-7.402999134329282,-191.19006262947238L-4.2345546848729185,-96.57387323218047A96.66666666666667,96.66666666666667,0,0,0,-76.84275828845925,-58.64840102735857Z"><title>Northern Europe</title></path><path fill="#cccccc" display="" d="M-5.404135439177261,-191.25699925649644A191.33333333333334,191.33333333333334,0,0,1,-3.932061152316195,-191.29292548220096L-2.3584643355032444,-96.63789158721647Z"><title>Southeast Asia</title></path><path fill="#ff7f0e" display="" d="M-1.9323118809007045,-191.32357569112955A191.33333333333334,191.33333333333334,0,0,1,-1.0385749642689905,-191.33051457226586L-0.7504873998760673,-96.66375335722833Z"><title>Central Asia</title></path><path fill="#bcbd22" display="" d="M-0.01929171940972271,-191.3333323607625L-0.009746687506654332,-96.66666617529813Z"><title>Polynesia</title></path><path fill="#17becf" display="" d="M0.05807681353758223,-287.9999941442425L0.03898674982846955,-193.33332940238503Z"><title>Afghanistan</title></path><path fill="#17becf" display="" d="M1.1161449161479822,-287.9978371802923A288,288,0,0,1,9.800400870728163,-287.8332019464972L6.250449620415221,-193.23226867508552A193.33333333333334,193.33333333333334,0,0,0,1.07796444665349,-193.3303281185586Z"><title>India</title></path><path fill="#17becf" display="" d="M11.798978346963779,-287.75820424441054A288,288,0,0,1,16.820011222978138,-287.50841243772135L10.963051933734036,-193.02225071238814A193.33333333333334,193.33333333333334,0,0,0,8.249027096650856,-193.15727097299884Z"><title>Pakistan</title></path><path fill="#17becf" display="" d="M17.876160208928535,-287.44467797505786L12.000200140252954,-192.9605477147379Z"><title>Sri Lanka</title></path><path fill="#8c564b" display="" d="M18.36883476331989,-287.41361469046285L12.330930743895296,-192.9396950468385Z"><title>Algeria</title></path><path fill="#8c564b" display="" d="M19.614767386622265,-287.33127379449786L13.16732069935291,-192.8844199083435Z"><title>Egypt</title></path><path fill="#8c564b" display="" d="M21.0630610291266,-287.22873717663293L14.139554857515543,-192.815587456536Z"><title>Morocco</title></path><path fill="#8c564b" display="" d="M21.98969033695003,-287.1592824877598L14.761597679897012,-192.76896278113506Z"><title>Tunisia</title></path><path fill="#9467bd" display="" d="M23.276076648614243,-287.05787614320536A288,288,0,0,1,36.24701558579587,-285.70991208063305L24.00636185039914,-191.837098519774A193.33333333333334,193.33333333333334,0,0,0,15.952750235258383,-192.6740447951131Z"><title>Argentina</title></path><path fill="#9467bd" display="" d="M38.01615382615599,-285.47989780064387L25.520103262928792,-191.6415980606174Z"><title>Bahamas</title></path><path fill="#9467bd" display="" d="M38.821961951659404,-285.3714338721098L26.06103927310469,-191.5687866271107Z"><title>Barbados</title></path><path fill="#9467bd" display="" d="M39.84135251632773,-285.2309005519383A288,288,0,0,1,62.49939861917003,-281.13666636040574L41.63468347699595,-188.79706276726907A193.33333333333334,193.33333333333334,0,0,0,27.07085731155556,-191.42869811549986Z"><title>Brazil</title></path><path fill="#9467bd" display="" d="M63.61679674036539,-280.88592555073853L42.70572003404158,-188.557681503968Z"><title>British West Indies</title></path><path fill="#9467bd" display="" d="M64.69252935674703,-280.6401194509196L43.427855355223706,-188.3926727795525Z"><title>Chile</title></path><path fill="#9467bd" display="" d="M66.16304240597704,-280.29707779351696L44.41500531882718,-188.16239018546278Z"><title>Colombia</title></path><path fill="#9467bd" display="" d="M66.81288389263034,-280.14288951524344L44.85124150199722,-188.05888416532548Z"><title>Costa Rica</title></path><path fill="#9467bd" display="" d="M67.89807680132975,-279.8818521567283A288,288,0,0,1,88.87987379253674,-273.94227135406237L59.351984363978374,-183.99760794596176A193.33333333333334,193.33333333333334,0,0,0,45.89910014024162,-187.80588484947393Z"><title>Cuba</title></path><path fill="#9467bd" display="" d="M89.99604075644646,-273.5776172280255L60.41400884113305,-183.65164119473934Z"><title>Dominican Republic</title></path><path fill="#9467bd" display="" d="M90.21668529351163,-273.5049354118706L60.5621267016629,-183.60285016074644Z"><title>Ecuador</title></path><path fill="#9467bd" display="" d="M90.29941186939917,-273.47763384971836L60.61766074566148,-183.58452272319056Z"><title>Grenada</title></path><path fill="#9467bd" display="" d="M90.35455833042809,-273.4594189069253L60.65468036070404,-183.57229509955636Z"><title>Guatemala</title></path><path fill="#9467bd" display="" d="M90.40970111719048,-273.44119284390985L60.69169750922509,-183.560060010958Z"><title>Guyana</title></path><path fill="#9467bd" display="" d="M90.6577981284526,-273.35903796747004L60.85824411400753,-183.5049097466813Z"><title>Haiti</title></path><path fill="#9467bd" display="" d="M91.8266199009251,-272.9686280098338A288,288,0,0,1,96.90552138952226,-271.20715315829125L64.74268576641325,-182.17069582545173A193.33333333333334,193.33333333333334,0,0,0,61.95432898787457,-183.13775934372458Z"><title>Jamaica</title></path><path fill="#9467bd" display="" d="M98.78654150249194,-270.52766811913426A288,288,0,0,1,102.68012901952756,-269.0739509958799L68.62158757332185,-180.74527793747393A193.33333333333334,193.33333333333334,0,0,0,66.62370587938294,-181.49121078629472Z"><title>Mexico</title></path><path fill="#9467bd" display="" d="M103.64088069790968,-268.7053550790562L69.57373935739308,-180.38090965955158Z"><title>Netherlands Antilles</title></path><path fill="#9467bd" display="" d="M103.74924414717677,-268.663533697615L69.64648333953996,-180.35283512108415Z"><title>Panama</title></path><path fill="#9467bd" display="" d="M104.2908079034115,-268.45377141484477L70.01003308330866,-180.21202247755784Z"><title>Paraguay</title></path><path fill="#9467bd" display="" d="M105.15642687353946,-268.115881452759L70.59111989195937,-179.985198197454Z"><title>Peru</title></path><path fill="#9467bd" display="" d="M105.77791485863814,-267.8712988137376L71.00832247454876,-179.82101077774053Z"><title>Puerto Rico</title></path><path fill="#9467bd" display="" d="M106.04794978735214,-267.7645091230338L71.1895959220651,-179.74932325388843Z"><title>Suriname</title></path><path fill="#9467bd" display="" d="M106.91133571755661,-267.4209533583483L71.76918369928569,-179.51869554148382Z"><title>Trinidad and Tobago</title></path><path fill="#9467bd" display="" d="M108.64651054955341,-266.72070738022154A288,288,0,0,1,110.87816723656105,-265.8007374524405L74.12862813949985,-178.55734168029477A193.33333333333334,193.33333333333334,0,0,0,73.23831200384286,-178.9243623227579Z"><title>Uruguay</title></path><path fill="#9467bd" display="" d="M112.12146234951486,-265.2786792801229L75.26672241055397,-178.08059488711956Z"><title>Venezuela</title></path><path fill="#9467bd" display="" d="M112.46908299208532,-265.1314869473625L75.50007886042765,-177.98178521929427Z"><title>Virgin Islands</title></path><path fill="#cccccc" display="" d="M112.78979209058983,-264.995212787253L75.71536969044224,-177.8903048803319Z"><title>Armenia</title></path><path fill="#cccccc" display="" d="M113.77760365623436,-264.57259288566695L76.37848393589807,-177.60660170565603Z"><title>Azerbaijan</title></path><path fill="#cccccc" display="" d="M114.49744052395177,-264.2618703359683L76.86170775913429,-177.39801480886763Z"><title>Bahrain</title></path><path fill="#cccccc" display="" d="M114.55072808263006,-264.2387759125056L76.8974794999137,-177.382511607932Z"><title>Cyprus</title></path><path fill="#cccccc" display="" d="M115.24304166043667,-263.93757093079955L77.36222704057091,-177.18031381928677Z"><title>Georgia</title></path><path fill="#cccccc" display="" d="M116.82271333666783,-263.24219579820164A288,288,0,0,1,118.23111071420112,-262.61265098864965L79.06826339866383,-176.42558629886227A193.33333333333334,193.33333333333334,0,0,0,78.72298857786444,-176.5799219819377Z"><title>Iran</title></path><path fill="#cccccc" display="" d="M119.1686767603159,-262.1885323182449L79.99749134373059,-176.00619067659957Z"><title>Iraq</title></path><path fill="#cccccc" display="" d="M119.38012511675724,-262.09232290761094L80.1394358422676,-175.94160565557215Z"><title>Israel</title></path><path fill="#cccccc" display="" d="M119.61791166686145,-261.983883489918L80.29906107266163,-175.86881067610236Z"><title>Kuwait</title></path><path fill="#cccccc" display="" d="M119.77638132275666,-261.911470686615L80.40544116573943,-175.82020022944064Z"><title>Lebanon</title></path><path fill="#cccccc" display="" d="M119.98760599740126,-261.81477117804565L80.54723550751474,-175.75528620748435Z"><title>Qatar</title></path><path fill="#cccccc" display="" d="M120.25152704049964,-261.69365724913547L80.72440472626134,-175.67398287557705Z"><title>Saudi Arabia</title></path><path fill="#cccccc" display="" d="M120.48895146263008,-261.5844272418295L80.88378686148779,-175.6006571762281Z"><title>Syria</title></path><path fill="#cccccc" display="" d="M121.47548957548044,-261.1277569167961A288,288,0,0,1,124.18407469221165,-259.85056396482804L83.06761275572379,-174.57820450687106A193.33333333333334,193.33333333333334,0,0,0,81.84396224020222,-175.15519867421045Z"><title>Turkey</title></path><path fill="#cccccc" display="" d="M125.11173374163734,-259.40519285504223L83.98704348396952,-174.13774520361633Z"><title>United Arab Emirates</title></path><path fill="#1f77b4" display="" d="M125.89581784544995,-259.0255644700447L84.51339623884373,-173.88290207479852Z"><title>Australasia</title></path><path fill="#1f77b4" display="" d="M127.55001263544932,-258.21501559107037A288,288,0,0,1,183.6855533152137,-221.818884460462L123.05408407862453,-149.11562684490377A193.33333333333334,193.33333333333334,0,0,0,85.91843676908348,-173.19295597955127Z"><title>Australia</title></path><path fill="#1f77b4" display="" d="M185.22151166250117,-220.53795958396356A288,288,0,0,1,192.04755883159115,-214.61997844288993L128.67567565083263,-144.2925787196954A193.33333333333334,193.33333333333334,0,0,0,124.59004242591197,-147.83470196840537Z"><title>New Zealand</title></path><path fill="#cccccc" display="" d="M193.53332384667553,-213.28115847598403A288,288,0,0,1,198.28219810417542,-208.87357399866679L132.86751841806887,-140.4421600773853A193.33333333333334,193.33333333333334,0,0,0,130.161440665917,-142.95375875278953Z"><title>Austria</title></path><path fill="#cccccc" display="" d="M199.7279077584095,-207.49159708876957A288,288,0,0,1,214.89329480411388,-191.74167999741786L144.03802319797745,-128.96055850916858A193.33333333333334,193.33333333333334,0,0,0,134.31322807230288,-139.06018316748808Z"><title>Belgium</title></path><path fill="#cccccc" display="" d="M216.21963410120352,-190.2447629480025A288,288,0,0,1,243.6786081648167,-153.50809725502342L163.40510678499345,-103.3273867586066A193.33333333333334,193.33333333333334,0,0,0,145.36436249506704,-127.46364145975323Z"><title>East Germany</title></path><path fill="#cccccc" display="" d="M244.73874609656312,-151.81220688430165A288,288,0,0,1,276.73234714803453,-79.76971882826022L185.67808735494384,-53.86488330988589A193.33333333333334,193.33333333333334,0,0,0,164.46524471673987,-101.63149638788481Z"><title>France</title></path><path fill="#cccccc" display="" d="M277.2796231526388,-77.846069806578A288,288,0,0,1,287.9559652774513,-5.036075965595062L193.29774575724036,-3.7093480487868407A193.33333333333334,193.33333333333334,0,0,0,186.22536335954808,-51.94123428820366Z"><title>Germany</title></path><path fill="#cccccc" display="" d="M287.97252375879987,-3.978135239963197L193.31488863437957,-2.670507452753072Z"><title>Luxembourg</title></path><path fill="#cccccc" display="" d="M287.98519541390993,-2.9201408205961465A288,288,0,0,1,284.5684095549024,44.326293364021666L191.08003436000783,29.431246095875927A193.33333333333334,193.33333333333334,0,0,0,193.32644850802447,-1.631589731503829Z"><title>Netherlands</title></path><path fill="#cccccc" display="" d="M284.25373077797985,46.30136648955123A288,288,0,0,1,280.33996010638043,65.98110917189126L188.2662113756179,43.972848805245064A193.33333333333334,193.33333333333334,0,0,0,190.76535558308527,31.40631922140549Z"><title>Switzerland</title></path><path fill="#cccccc" display="" d="M279.87500472022464,67.92629632811025A288,288,0,0,1,272.46342945009184,93.31494849323354L183.00993018721462,62.33091713306176A193.33333333333334,193.33333333333334,0,0,0,187.8012559894621,45.91803596146405Z"><title>West Germany</title></path><path fill="#d62728" display="" d="M271.8088483052975,95.20477920224269A288,288,0,0,1,270.2665025511876,99.49883214766339L181.54220130191518,66.48463675340857A193.33333333333334,193.33333333333334,0,0,0,182.35534904242024,64.22074784207095Z"><title>Belarus</title></path><path fill="#d62728" display="" d="M269.8484391734666,100.62713289984912L181.14825777848455,67.5506216225839Z"><title>Bohemia</title></path><path fill="#d62728" display="" d="M269.4256654218845,101.75367714227707A288,288,0,0,1,262.81492181690624,117.78080009226228L176.5608558058666,78.76574112441124A193.33333333333334,193.33333333333334,0,0,0,180.74805503501182,68.61427241353017Z"><title>Bulgaria</title></path><path fill="#d62728" display="" d="M261.99067394333144,119.60303828381191A288,288,0,0,1,252.88823977638373,137.80978986560515L169.91998030598262,92.22243799961187A193.33333333333334,193.33333333333334,0,0,0,175.7366079322918,80.58797931596087Z"><title>Czech Republic</title></path><path fill="#d62728" display="" d="M251.92514299192385,139.5626107827549A288,288,0,0,1,217.17598043111653,189.15230245435367L146.00510645465897,126.72918632636083A193.33333333333334,193.33333333333334,0,0,0,168.95688352152274,93.97525891676159Z"><title>Hungary</title></path><path fill="#d62728" display="" d="M215.8572044996792,190.65588704675153A288,288,0,0,1,215.33494141575576,191.24555682544113L144.72898060468373,128.1846322727762Z"><title>International Olympic Committee Mixed teams</title></path><path fill="#d62728" display="" d="M214.0016735901219,192.73630612997368A288,288,0,0,1,206.51998848854265,200.73239488107595L138.8650056166537,134.51501028831137A193.33333333333334,193.33333333333334,0,0,0,143.43834684428492,129.627228745956Z"><title>International Olympic Committee Unified Team</title></path><path fill="#d62728" display="" d="M205.69985444161847,201.57274092172526L138.08555043534574,135.31503441504705Z"><title>Moldova</title></path><path fill="#d62728" display="" d="M204.8763009884511,202.40973616229428A288,288,0,0,1,184.50898535128303,221.13442591473637L124.11240761051084,148.23592025855336A193.33333333333334,193.33333333333334,0,0,0,137.301486258488,136.11054202003606Z"><title>Poland</title></path><path fill="#d62728" display="" d="M182.9689021151305,222.41038837874407A288,288,0,0,1,154.51413541886788,243.04193456224743L104.00200881891004,162.9765625463034A193.33333333333334,193.33333333333334,0,0,0,122.57232437435837,149.51188272256107Z"><title>Romania</title></path><path fill="#d62728" display="" d="M152.8226420730422,244.10907412428327A288,288,0,0,1,115.17482921885188,263.96734403029535L77.61759930767381,177.06859138619467A193.33333333333334,193.33333333333334,0,0,0,102.31051547308435,164.04370210833926Z"><title>Russia</title></path><path fill="#d62728" display="" d="M113.80427935084404,264.56111959514203L76.39639123089069,177.59889972822037Z"><title>Russian Empire</title></path><path fill="#d62728" display="" d="M112.44234979537607,265.14282561007434L75.48213296448857,177.98939682157769Z"><title>Slovakia</title></path><path fill="#d62728" display="" d="M110.61010988006389,265.91239834261245A288,288,0,0,1,-3.471836495442024,287.9790727663191L-2.001947447413675,193.32296807207254A193.33333333333334,193.33333333333334,0,0,0,73.94855504665425,178.63199317112748Z"><title>Soviet Union</title></path><path fill="#d62728" display="" d="M-5.4715795454113945,287.94801929736946A288,288,0,0,1,-13.514244965712702,287.6827509306158L-8.743707517848758,193.13551034602648A193.33333333333334,193.33333333333334,0,0,0,-4.001690497383063,193.29191460312285Z"><title>Ukraine</title></path><path fill="#e377c2" display="" d="M-14.542055462603068,287.6326278830734L-9.762027972580764,193.086717791878Z"><title>Bermuda</title></path><path fill="#e377c2" display="" d="M-15.56968030796355,287.57883276609186A288,288,0,0,1,-50.99877769532324,283.4486279267956L-33.911731684923964,190.33594571679703A193.33333333333334,193.33333333333334,0,0,0,-10.780076976326011,193.03255610948705Z"><title>Canada</title></path><path fill="#e377c2" display="" d="M-52.96591377930757,283.0876401002399A288,288,0,0,1,-263.4655131807947,116.3181987669191L-176.7304097164813,78.38456518487834A193.33333333333334,193.33333333333334,0,0,0,-35.87886776890832,189.97495789024134Z"><title>United States</title></path><path fill="#cccccc" display="" d="M-263.87943887967276,115.37608823560039L-177.14128998866923,77.45154071371323Z"><title>Botswana</title></path><path fill="#cccccc" display="" d="M-263.90269974894073,115.32287312246622L-177.15690492405744,77.41581760535928Z"><title>Burundi</title></path><path fill="#cccccc" display="" d="M-264.1809928453692,114.6839265949462L-177.34372204897468,76.98689516790371Z"><title>Cameroon</title></path><path fill="#cccccc" display="" d="M-264.4577389627239,114.04430850649132L-177.52950069256931,76.55752191407983Z"><title>Djibouti</title></path><path fill="#cccccc" display="" d="M-264.4807312593898,113.99097680298385L-177.54493533616449,76.52172053904009Z"><title>Eritrea</title></path><path fill="#cccccc" display="" d="M-264.88633526288095,113.04525373053328A288,288,0,0,1,-265.1265317062646,112.48076362386179L-177.89793819038164,75.69743301716997Z"><title>Ethiopia</title></path><path fill="#cccccc" display="" d="M-265.52673556271805,111.53274273237618L-178.24711415089868,74.87151711201179Z"><title>Gabon</title></path><path fill="#cccccc" display="" d="M-265.7175206264961,111.07744700031425L-178.37518745760156,74.5658787733591Z"><title>Ghana</title></path><path fill="#cccccc" display="" d="M-265.90752500043436,110.6218249177953L-178.50273669010642,74.26002135685333Z"><title>Ivory Coast</title></path><path fill="#cccccc" display="" d="M-266.30108184294284,109.67102538628082A288,288,0,0,1,-267.5776494064824,106.51855020653247L-179.5020522121232,71.81080022819671A193.33333333333334,193.33333333333334,0,0,0,-178.89184277961493,73.31770839770779Z"><title>Kenya</title></path><path fill="#cccccc" display="" d="M-267.9565344978488,105.56180947626454L-179.87822917679665,70.86325173175166Z"><title>Mauritius</title></path><path fill="#cccccc" display="" d="M-267.98845293452064,105.48075224306191L-179.89965590511804,70.80883831131472Z"><title>Mozambique</title></path><path fill="#cccccc" display="" d="M-268.05221624516275,105.31860883080688L-179.94245997939166,70.69999203919906Z"><title>Namibia</title></path><path fill="#cccccc" display="" d="M-268.10527739852745,105.18345987396805L-179.9780797351226,70.60926704502485Z"><title>Niger</title></path><path fill="#cccccc" display="" d="M-268.47938881494343,104.22484243957592A288,288,0,0,1,-269.50765456033326,101.53631928225528L-180.8033420382479,68.46845467496777A193.33333333333334,193.33333333333334,0,0,0,-180.3479141575477,69.6592250660283Z"><title>Nigeria</title></path><path fill="#cccccc" display="" d="M-269.8687257118949,100.57271440424599L-181.16187605659613,67.51409068803551Z"><title>Senegal</title></path><path fill="#cccccc" display="" d="M-270.2263515773373,99.60782556205746A288,288,0,0,1,-271.63561355442107,95.697928132814L-182.2384945164492,64.55159869558531A193.33333333333334,193.33333333333334,0,0,0,-181.51537253866886,66.55784934871346Z"><title>South Africa</title></path><path fill="#cccccc" display="" d="M-271.97581042337436,94.72675727875807L-182.57635421939483,63.58972132138853Z"><title>Sudan</title></path><path fill="#cccccc" display="" d="M-272.00445125273023,94.64448477698593L-182.59558070206427,63.534492095661854Z"><title>Tanzania</title></path><path fill="#cccccc" display="" d="M-272.03306719470964,94.56220361560212L-182.6147904779301,63.47925705676994Z"><title>Togo</title></path><path fill="#cccccc" display="" d="M-272.1092546817989,94.34274490662169L-182.66593485583726,63.331935238241414Z"><title>Uganda</title></path><path fill="#cccccc" display="" d="M-272.1947539781127,94.09578049410456L-182.7233302167886,63.16614894280168Z"><title>Zambia</title></path><path fill="#cccccc" display="" d="M-272.4310757458219,93.40936231435401L-182.881972144186,62.705358961024686Z"><title>Zimbabwe</title></path><path fill="#2ca02c" display="" d="M-272.9674604135627,91.83009068584258A288,288,0,0,1,-283.91011393839716,48.36369716519144L-190.53233339762002,32.790359983323704A193.33333333333334,193.33333333333334,0,0,0,-183.3465890992107,61.33356375968203Z"><title>China</title></path><path fill="#2ca02c" display="" d="M-284.2391225416443,46.39096050693623A288,288,0,0,1,-284.3280562923008,45.84273557546755L-190.8386093869762,30.958083678142938Z"><title>Chinese Taipei</title></path><path fill="#2ca02c" display="" d="M-284.50358471567324,44.74047701949241L-190.98620270265104,30.034116517714814Z"><title>Hong Kong</title></path><path fill="#2ca02c" display="" d="M-284.674840014324,43.63754648028512A288,288,0,0,1,-287.9999969772335,0.04172665228852838L-193.3330042497145,0.35671495294859573A193.33333333333334,193.33333333333334,0,0,0,-191.15069454007144,28.96877205934145Z"><title>Japan</title></path><path fill="#2ca02c" display="" d="M-287.9952436740676,-1.6551800852006047L-193.33014042935093,-1.111116260898554Z"><title>Mongolia</title></path><path fill="#2ca02c" display="" d="M-287.9804922198101,-3.352029360835978A288,288,0,0,1,-287.9613137118716,-4.720360720654359L-193.31247148435816,-2.8400961932650004A193.33333333333334,193.33333333333334,0,0,0,-193.31613263782396,-2.57888342757984Z"><title>North Korea</title></path><path fill="#2ca02c" display="" d="M-287.92159048500844,-6.719950340822004A288,288,0,0,1,-285.82181215254684,-35.35380740223373L-191.9111970666068,-23.406627656281273A193.33333333333334,193.33333333333334,0,0,0,-193.272748257495,-4.839685813432664Z"><title>South Korea</title></path><path fill="#cccccc" display="" d="M-285.56941121400325,-37.337800938024095A288,288,0,0,1,-284.9336217597717,-41.914570150000834L-191.32244702564213,-27.811850745646943A193.33333333333334,193.33333333333334,0,0,0,-191.65879612806324,-25.390621192071574Z"><title>Croatia</title></path><path fill="#cccccc" display="" d="M-284.6356820209073,-43.89223758813092A288,288,0,0,1,-283.55597643951256,-50.398494277454326L-190.4073231480646,-33.50864171174779A193.33333333333334,193.33333333333334,0,0,0,-191.02450728677775,-29.789518183777048Z"><title>Greece</title></path><path fill="#cccccc" display="" d="M-283.19915460121297,-52.36639030101531A288,288,0,0,1,-260.90531045580923,-121.95252755050956L-175.28370395691306,-81.56838177212443A193.33333333333334,193.33333333333334,0,0,0,-190.05050130976502,-35.47653773530879Z"><title>Italy</title></path><path fill="#cccccc" display="" d="M-260.46790598004947,-122.88396947677154L-174.85114058845915,-82.49155358394387Z"><title>Macedonia</title></path><path fill="#cccccc" display="" d="M-260.2817563450447,-123.27776488052818L-174.7261790279235,-82.7559069799842Z"><title>Montenegro</title></path><path fill="#cccccc" display="" d="M-259.69463410760306,-124.50982698453228L-174.33204604445578,-83.58298570720918Z"><title>Portugal</title></path><path fill="#cccccc" display="" d="M-258.8857733984906,-126.18302711484375L-173.78906084620894,-84.70619875764974Z"><title>Serbia</title></path><path fill="#cccccc" display="" d="M-258.310586495269,-127.35635400116544L-173.40294000839816,-85.49384875078236Z"><title>Serbia and Montenegro</title></path><path fill="#cccccc" display="" d="M-257.7948446018961,-128.39711093589392L-173.0567243855321,-86.19250502641029Z"><title>Slovenia</title></path><path fill="#cccccc" display="" d="M-257.0076464253947,-129.96564807240154A288,288,0,0,1,-245.47060774670646,-150.62596300924545L-164.95518612191668,-100.83434112077892A193.33333333333334,193.33333333333334,0,0,0,-172.3796976561515,-87.53866353647156Z"><title>Spain</title></path><path fill="#cccccc" display="" d="M-244.41868985784137,-152.32696428464774A288,288,0,0,1,-231.33078668442838,-171.55193712681734L-155.4870738470084,-114.89798799053335A193.33333333333334,193.33333333333334,0,0,0,-163.9032682330516,-102.53534239618124Z"><title>Yugoslavia</title></path><path fill="#7f7f7f" display="" d="M-230.13389250201362,-173.1542419979125A288,288,0,0,1,-212.61397609641512,-194.26604738984378L-142.9484907557823,-130.16722616857822A193.33333333333334,193.33333333333334,0,0,0,-154.29017966459352,-116.50029286162858Z"><title>Denmark</title></path><path fill="#7f7f7f" display="" d="M-211.25979854323455,-195.7378285346804A288,288,0,0,1,-211.0795979924979,-195.93213955685135L-141.75745134054995,-131.46331338898088Z"><title>Estonia</title></path><path fill="#7f7f7f" display="" d="M-209.71388751362807,-197.3932252736181A288,288,0,0,1,-192.19626142848355,-214.48682265564474L-129.2652529788706,-143.76464151552136A193.33333333333334,193.33333333333334,0,0,0,-140.5546609941711,-132.74850300696963Z"><title>Finland</title></path><path fill="#7f7f7f" display="" d="M-190.70215610193898,-215.81632852514124A288,288,0,0,1,-107.83922886312581,-267.0481243487892L-72.6967612728935,-179.14507718106495A193.33333333333334,193.33333333333334,0,0,0,-127.771147652326,-145.0941473850179Z"><title>Great Britain</title></path><path fill="#7f7f7f" display="" d="M-106.45279994914877,-267.60381421606553L-71.46137033623414,-179.64144935800695Z"><title>Iceland</title></path><path fill="#7f7f7f" display="" d="M-105.18345987396914,-268.10527739852705L-70.60926704502559,-179.97807973512232Z"><title>Ireland</title></path><path fill="#7f7f7f" display="" d="M-103.83050566031781,-268.6321389825177L-69.70103389234298,-180.33175996511608Z"><title>Latvia</title></path><path fill="#7f7f7f" display="" d="M-102.35449231969277,-269.1979901521888A288,288,0,0,1,-101.23734438419471,-269.62010329728L-68.26788256480411,-180.87916957984933A193.33333333333334,193.33333333333334,0,0,0,-68.40284760868668,-180.8281731832752Z"><title>Lithuania</title></path><path fill="#7f7f7f" display="" d="M-99.36256762233192,-270.316629446835A288,288,0,0,1,-70.54765546806391,-279.22576583825384L-47.6770011019286,-187.36243311748618A193.33333333333334,193.33333333333334,0,0,0,-66.3931058029413,-181.57569572940434Z"><title>Norway</title></path><path fill="#7f7f7f" display="" d="M-68.60691364534928,-279.70894050791367A288,288,0,0,1,-10.638324443079764,-287.803450384188L-7.469937196745124,-193.1889691883428A193.33333333333334,193.33333333333334,0,0,0,-45.73625927921396,-187.84560778714604Z"><title>Sweden</title></path><path fill="#cccccc" display="" d="M-8.639460747927885,-287.8703870112121A288,288,0,0,1,-8.43262089902757,-287.8765202387532L-5.730212959616804,-193.2483956911809Z"><title>Indonesia</title></path><path fill="#cccccc" display="" d="M-7.200774474287588,-287.9099665641508L-4.833853235054168,-193.27289422130497Z"><title>Malaysia</title></path><path fill="#cccccc" display="" d="M-6.707265543277474,-287.92188626245826L-4.5025625174779345,-193.28089587063172Z"><title>Philippines</title></path><path fill="#cccccc" display="" d="M-6.213736906024241,-287.9329600335167L-4.171258571173681,-193.28832965212928Z"><title>Singapore</title></path><path fill="#cccccc" display="" d="M-5.255659910930454,-287.9520412132906L-3.528105032800537,-193.30113877744049Z"><title>Thailand</title></path><path fill="#cccccc" display="" d="M-4.471734976430841,-287.96528191138003L-3.0018591276966293,-193.31002720902825Z"><title>Vietnam</title></path><path fill="#ff7f0e" display="" d="M-3.4137638314072345,-287.9797670262676A288,288,0,0,1,-2.5680340268981108,-287.9885504690016L-2.0077815382081807,-193.32290756936337Z"><title>Kazakhstan</title></path><path fill="#ff7f0e" display="" d="M-1.4809522285683983,-287.9961923020801L-0.9941577460297119,-193.33077723982228Z"><title>Kyrgyzstan</title></path><path fill="#ff7f0e" display="" d="M-1.3067238299300508,-287.9970355278545L-0.8771988673141545,-193.3313432941616Z"><title>Tajikistan</title></path><path fill="#ff7f0e" display="" d="M-0.6388444293406306,-287.99929145363376L-0.42885389932588625,-193.33285768878196Z"><title>Uzbekistan</title></path><path fill="#bcbd22" display="" d="M-0.02903840691637704,-287.9999985360606L-0.019493375013308663,-193.33333235059627Z"><title>Tonga</title></path></g><g id="labels" transform="translate(402.5,300)" text-anchor="middle"><text transform="rotate(90) translate(48.333333333333336,0) rotate(180)" style="opacity: 1;"><tspan x="0" y="4" style="font-family: Arial, sans-serif; font-size: 10px; fill: black; font-weight: normal;"/></text><text transform="rotate(-88.21490467937608) translate(145,0) rotate(0)" style="opacity: 1;"><tspan x="0" y="4" style="font-family: Arial, sans-serif; font-size: 10px; fill: black; font-weight: normal;">South Asia</tspan></text><text transform="rotate(-85.99653379549393) translate(145,0) rotate(0)" style="opacity: 0;"><tspan x="0" y="4" style="font-family: Arial, sans-serif; font-size: 10px; fill: black; font-weight: normal;">North Africa</tspan></text><text transform="rotate(-76.28538417099942) translate(145,0) rotate(0)" style="opacity: 1;"><tspan x="0" y="4" style="font-family: Arial, sans-serif; font-size: 10px; fill: black; font-weight: normal;">Latin America and the Caribbean</tspan></text><text transform="rotate(-65.6268053148469) translate(145,0) rotate(0)" style="opacity: 0;"><tspan x="0" y="4" style="font-family: Arial, sans-serif; font-size: 10px; fill: black; font-weight: normal;">Western Asia</tspan></text><text transform="rotate(-56.11207394569613) translate(145,0) rotate(0)" style="opacity: 1;"><tspan x="0" y="4" style="font-family: Arial, sans-serif; font-size: 10px; fill: black; font-weight: normal;">Australasia</tspan></text><text transform="rotate(-14.436741767764303) translate(145,0) rotate(0)" style="opacity: 1;"><tspan x="0" y="4" style="font-family: Arial, sans-serif; font-size: 10px; fill: black; font-weight: normal;">Western Europe</tspan></text><text transform="rotate(55.996533795493946) translate(145,0) rotate(0)" style="opacity: 1;"><tspan x="0" y="4" style="font-family: Arial, sans-serif; font-size: 10px; fill: black; font-weight: normal;">Eastern Europe</tspan></text><text transform="rotate(124.63316002310805) translate(145,0) rotate(180)" style="opacity: 1;"><tspan x="0" y="4" style="font-family: Arial, sans-serif; font-size: 10px; fill: black; font-weight: normal;">Northern America</tspan></text><text transform="rotate(158.79260543038706) translate(145,0) rotate(180)" style="opacity: 1;"><tspan x="0" y="4" style="font-family: Arial, sans-serif; font-size: 10px; fill: black; font-weight: normal;">Sub-Saharan Africa</tspan></text><text transform="rotate(174.22876949740038) translate(145,0) rotate(180)" style="opacity: 1;"><tspan x="0" y="4" style="font-family: Arial, sans-serif; font-size: 10px; fill: black; font-weight: normal;">East Asia</tspan></text><text transform="rotate(202.00462160600813) translate(145,0) rotate(180)" style="opacity: 1;"><tspan x="0" y="4" style="font-family: Arial, sans-serif; font-size: 10px; fill: black; font-weight: normal;">Southern Europe</tspan></text><text transform="rotate(242.42056614673595) translate(145,0) rotate(180)" style="opacity: 1;"><tspan x="0" y="4" style="font-family: Arial, sans-serif; font-size: 10px; fill: black; font-weight: normal;">Northern Europe</tspan></text><text transform="rotate(268.6019641825535) translate(145,0) rotate(180)" style="opacity: 0;"><tspan x="0" y="4" style="font-family: Arial, sans-serif; font-size: 10px; fill: black; font-weight: normal;">Southeast Asia</tspan></text><text transform="rotate(269.5551704217215) translate(145,0) rotate(180)" style="opacity: 0;"><tspan x="0" y="4" style="font-family: Arial, sans-serif; font-size: 10px; fill: black; font-weight: normal;">Central Asia</tspan></text><text transform="rotate(269.9942229924899) translate(145,0) rotate(180)" style="opacity: 0;"><tspan x="0" y="4" style="font-family: Arial, sans-serif; font-size: 10px; fill: black; font-weight: normal;">Polynesia</tspan></text><text transform="rotate(-89.98844598497978) translate(241.66666666666669,0) rotate(0)" style="opacity: 1;"><tspan x="0" y="4" style="font-family: Arial, sans-serif; font-size: 10px; fill: black; font-weight: normal;">Afghanistan</tspan></text><text transform="rotate(-88.91392258809937) translate(241.66666666666669,0) rotate(0)" style="opacity: 0;"><tspan x="0" y="4" style="font-family: Arial, sans-serif; font-size: 10px; fill: black; font-weight: normal;">India</tspan></text><text transform="rotate(-87.15193529751589) translate(241.66666666666669,0) rotate(0)" style="opacity: 0;"><tspan x="0" y="4" style="font-family: Arial, sans-serif; font-size: 10px; fill: black; font-weight: normal;">Pakistan</tspan></text><text transform="rotate(-86.44136337377239) translate(241.66666666666669,0) rotate(0)" style="opacity: 1;"><tspan x="0" y="4" style="font-family: Arial, sans-serif; font-size: 10px; fill: black; font-weight: normal;">Sri Lanka</tspan></text><text transform="rotate(-86.34315424610053) translate(241.66666666666669,0) rotate(0)" style="opacity: 0;"><tspan x="0" y="4" style="font-family: Arial, sans-serif; font-size: 10px; fill: black; font-weight: normal;">Algeria</tspan></text><text transform="rotate(-86.0947429231658) translate(241.66666666666669,0) rotate(0)" style="opacity: 0;"><tspan x="0" y="4" style="font-family: Arial, sans-serif; font-size: 10px; fill: black; font-weight: normal;">Egypt</tspan></text><text transform="rotate(-85.8058925476603) translate(241.66666666666669,0) rotate(0)" style="opacity: 0;"><tspan x="0" y="4" style="font-family: Arial, sans-serif; font-size: 10px; fill: black; font-weight: normal;">Morocco</tspan></text><text transform="rotate(-85.6210283073368) translate(241.66666666666669,0) rotate(0)" style="opacity: 0;"><tspan x="0" y="4" style="font-family: Arial, sans-serif; font-size: 10px; fill: black; font-weight: normal;">Tunisia</tspan></text><text transform="rotate(-84.06701328711728) translate(241.66666666666669,0) rotate(0)" style="opacity: 0;"><tspan x="0" y="4" style="font-family: Arial, sans-serif; font-size: 10px; fill: black; font-weight: normal;">Argentina</tspan></text><text transform="rotate(-82.41478913922587) translate(241.66666666666669,0) rotate(0)" style="opacity: 1;"><tspan x="0" y="4" style="font-family: Arial, sans-serif; font-size: 10px; fill: black; font-weight: normal;">Bahamas</tspan></text><text transform="rotate(-82.25303292894282) translate(241.66666666666669,0) rotate(0)" style="opacity: 0;"><tspan x="0" y="4" style="font-family: Arial, sans-serif; font-size: 10px; fill: black; font-weight: normal;">Barbados</tspan></text><text transform="rotate(-79.75736568457539) translate(241.66666666666669,0) rotate(0)" style="opacity: 0;"><tspan x="0" y="4" style="font-family: Arial, sans-serif; font-size: 10px; fill: black; font-weight: normal;">Brazil</tspan></text><text transform="rotate(-77.23859041016753) translate(241.66666666666669,0) rotate(0)" style="opacity: 0;"><tspan x="0" y="4" style="font-family: Arial, sans-serif; font-size: 10px; fill: black; font-weight: normal;">British West Indies</tspan></text><text transform="rotate(-77.01906412478337) translate(241.66666666666669,0) rotate(0)" style="opacity: 1;"><tspan x="0" y="4" style="font-family: Arial, sans-serif; font-size: 10px; fill: black; font-weight: normal;">Chile</tspan></text><text transform="rotate(-76.71865973425766) translate(241.66666666666669,0) rotate(0)" style="opacity: 0;"><tspan x="0" y="4" style="font-family: Arial, sans-serif; font-size: 10px; fill: black; font-weight: normal;">Colombia</tspan></text><text transform="rotate(-76.58578856152513) translate(241.66666666666669,0) rotate(0)" style="opacity: 0;"><tspan x="0" y="4" style="font-family: Arial, sans-serif; font-size: 10px; fill: black; font-weight: normal;">Costa Rica</tspan></text><text transform="rotate(-74.1941074523397) translate(241.66666666666669,0) rotate(0)" style="opacity: 0;"><tspan x="0" y="4" style="font-family: Arial, sans-serif; font-size: 10px; fill: black; font-weight: normal;">Cuba</tspan></text><text transform="rotate(-71.79087232813403) translate(241.66666666666669,0) rotate(0)" style="opacity: 0;"><tspan x="0" y="4" style="font-family: Arial, sans-serif; font-size: 10px; fill: black; font-weight: normal;">Dominican Republic</tspan></text><text transform="rotate(-71.74465626805315) translate(241.66666666666669,0) rotate(0)" style="opacity: 1;"><tspan x="0" y="4" style="font-family: Arial, sans-serif; font-size: 10px; fill: black; font-weight: normal;">Ecuador</tspan></text><text transform="rotate(-71.72732524552282) translate(241.66666666666669,0) rotate(0)" style="opacity: 0;"><tspan x="0" y="4" style="font-family: Arial, sans-serif; font-size: 10px; fill: black; font-weight: normal;">Grenada</tspan></text><text transform="rotate(-71.7157712305026) translate(241.66666666666669,0) rotate(0)" style="opacity: 0;"><tspan x="0" y="4" style="font-family: Arial, sans-serif; font-size: 10px; fill: black; font-weight: normal;">Guatemala</tspan></text><text transform="rotate(-71.70421721548237) translate(241.66666666666669,0) rotate(0)" style="opacity: 0;"><tspan x="0" y="4" style="font-family: Arial, sans-serif; font-size: 10px; fill: black; font-weight: normal;">Guyana</tspan></text><text transform="rotate(-71.65222414789139) translate(241.66666666666669,0) rotate(0)" style="opacity: 0;"><tspan x="0" y="4" style="font-family: Arial, sans-serif; font-size: 10px; fill: black; font-weight: normal;">Haiti</tspan></text><text transform="rotate(-70.87232813402657) translate(241.66666666666669,0) rotate(0)" style="opacity: 0;"><tspan x="0" y="4" style="font-family: Arial, sans-serif; font-size: 10px; fill: black; font-weight: normal;">Jamaica</tspan></text><text transform="rotate(-69.526285384171) translate(241.66666666666669,0) rotate(0)" style="opacity: 0;"><tspan x="0" y="4" style="font-family: Arial, sans-serif; font-size: 10px; fill: black; font-weight: normal;">Mexico</tspan></text><text transform="rotate(-68.90814558058926) translate(241.66666666666669,0) rotate(0)" style="opacity: 0;"><tspan x="0" y="4" style="font-family: Arial, sans-serif; font-size: 10px; fill: black; font-weight: normal;">Netherlands Antilles</tspan></text><text transform="rotate(-68.88503755054882) translate(241.66666666666669,0) rotate(0)" style="opacity: 0;"><tspan x="0" y="4" style="font-family: Arial, sans-serif; font-size: 10px; fill: black; font-weight: normal;">Panama</tspan></text><text transform="rotate(-68.76949740034662) translate(241.66666666666669,0) rotate(0)" style="opacity: 0;"><tspan x="0" y="4" style="font-family: Arial, sans-serif; font-size: 10px; fill: black; font-weight: normal;">Paraguay</tspan></text><text transform="rotate(-68.58463316002312) translate(241.66666666666669,0) rotate(0)" style="opacity: 0;"><tspan x="0" y="4" style="font-family: Arial, sans-serif; font-size: 10px; fill: black; font-weight: normal;">Peru</tspan></text><text transform="rotate(-68.45176198729058) translate(241.66666666666669,0) rotate(0)" style="opacity: 0;"><tspan x="0" y="4" style="font-family: Arial, sans-serif; font-size: 10px; fill: black; font-weight: normal;">Puerto Rico</tspan></text><text transform="rotate(-68.39399191218949) translate(241.66666666666669,0) rotate(0)" style="opacity: 0;"><tspan x="0" y="4" style="font-family: Arial, sans-serif; font-size: 10px; fill: black; font-weight: normal;">Suriname</tspan></text><text transform="rotate(-68.20912767186599) translate(241.66666666666669,0) rotate(0)" style="opacity: 0;"><tspan x="0" y="4" style="font-family: Arial, sans-serif; font-size: 10px; fill: black; font-weight: normal;">Trinidad and Tobago</tspan></text><text transform="rotate(-67.59676487579435) translate(241.66666666666669,0) rotate(0)" style="opacity: 0;"><tspan x="0" y="4" style="font-family: Arial, sans-serif; font-size: 10px; fill: black; font-weight: normal;">Uruguay</tspan></text><text transform="rotate(-67.08838821490468) translate(241.66666666666669,0) rotate(0)" style="opacity: 0;"><tspan x="0" y="4" style="font-family: Arial, sans-serif; font-size: 10px; fill: black; font-weight: normal;">Venezuela</tspan></text><text transform="rotate(-67.01328711727325) translate(241.66666666666669,0) rotate(0)" style="opacity: 0;"><tspan x="0" y="4" style="font-family: Arial, sans-serif; font-size: 10px; fill: black; font-weight: normal;">Virgin Islands</tspan></text><text transform="rotate(-66.94396302715194) translate(241.66666666666669,0) rotate(0)" style="opacity: 0;"><tspan x="0" y="4" style="font-family: Arial, sans-serif; font-size: 10px; fill: black; font-weight: normal;">Armenia</tspan></text><text transform="rotate(-66.73021374927788) translate(241.66666666666669,0) rotate(0)" style="opacity: 0;"><tspan x="0" y="4" style="font-family: Arial, sans-serif; font-size: 10px; fill: black; font-weight: normal;">Azerbaijan</tspan></text><text transform="rotate(-66.57423454650491) translate(241.66666666666669,0) rotate(0)" style="opacity: 0;"><tspan x="0" y="4" style="font-family: Arial, sans-serif; font-size: 10px; fill: black; font-weight: normal;">Bahrain</tspan></text><text transform="rotate(-66.56268053148469) translate(241.66666666666669,0) rotate(0)" style="opacity: 0;"><tspan x="0" y="4" style="font-family: Arial, sans-serif; font-size: 10px; fill: black; font-weight: normal;">Cyprus</tspan></text><text transform="rotate(-66.41247833622184) translate(241.66666666666669,0) rotate(0)" style="opacity: 0;"><tspan x="0" y="4" style="font-family: Arial, sans-serif; font-size: 10px; fill: black; font-weight: normal;">Georgia</tspan></text><text transform="rotate(-65.9156556903524) translate(241.66666666666669,0) rotate(0)" style="opacity: 1;"><tspan x="0" y="4" style="font-family: Arial, sans-serif; font-size: 10px; fill: black; font-weight: normal;">Iran</tspan></text><text transform="rotate(-65.55748122472559) translate(241.66666666666669,0) rotate(0)" style="opacity: 0;"><tspan x="0" y="4" style="font-family: Arial, sans-serif; font-size: 10px; fill: black; font-weight: normal;">Iraq</tspan></text><text transform="rotate(-65.51126516464471) translate(241.66666666666669,0) rotate(0)" style="opacity: 0;"><tspan x="0" y="4" style="font-family: Arial, sans-serif; font-size: 10px; fill: black; font-weight: normal;">Israel</tspan></text><text transform="rotate(-65.45927209705373) translate(241.66666666666669,0) rotate(0)" style="opacity: 0;"><tspan x="0" y="4" style="font-family: Arial, sans-serif; font-size: 10px; fill: black; font-weight: normal;">Kuwait</tspan></text><text transform="rotate(-65.42461005199307) translate(241.66666666666669,0) rotate(0)" style="opacity: 0;"><tspan x="0" y="4" style="font-family: Arial, sans-serif; font-size: 10px; fill: black; font-weight: normal;">Lebanon</tspan></text><text transform="rotate(-65.37839399191219) translate(241.66666666666669,0) rotate(0)" style="opacity: 0;"><tspan x="0" y="4" style="font-family: Arial, sans-serif; font-size: 10px; fill: black; font-weight: normal;">Qatar</tspan></text><text transform="rotate(-65.32062391681109) translate(241.66666666666669,0) rotate(0)" style="opacity: 0;"><tspan x="0" y="4" style="font-family: Arial, sans-serif; font-size: 10px; fill: black; font-weight: normal;">Saudi Arabia</tspan></text><text transform="rotate(-65.2686308492201) translate(241.66666666666669,0) rotate(0)" style="opacity: 0;"><tspan x="0" y="4" style="font-family: Arial, sans-serif; font-size: 10px; fill: black; font-weight: normal;">Syria</tspan></text><text transform="rotate(-64.75447718082034) translate(241.66666666666669,0) rotate(0)" style="opacity: 0;"><tspan x="0" y="4" style="font-family: Arial, sans-serif; font-size: 10px; fill: black; font-weight: normal;">Turkey</tspan></text><text transform="rotate(-64.25187752744078) translate(241.66666666666669,0) rotate(0)" style="opacity: 0;"><tspan x="0" y="4" style="font-family: Arial, sans-serif; font-size: 10px; fill: black; font-weight: normal;">United Arab Emirates</tspan></text><text transform="rotate(-64.0785673021375) translate(241.66666666666669,0) rotate(0)" style="opacity: 0;"><tspan x="0" y="4" style="font-family: Arial, sans-serif; font-size: 10px; fill: black; font-weight: normal;">Australasia</tspan></text><text transform="rotate(-57.04217215482381) translate(241.66666666666669,0) rotate(0)" style="opacity: 1;"><tspan x="0" y="4" style="font-family: Arial, sans-serif; font-size: 10px; fill: black; font-weight: normal;">Australia</tspan></text><text transform="rotate(-49.075678798382434) translate(241.66666666666669,0) rotate(0)" style="opacity: 0;"><tspan x="0" y="4" style="font-family: Arial, sans-serif; font-size: 10px; fill: black; font-weight: normal;">New Zealand</tspan></text><text transform="rotate(-47.134604274985556) translate(241.66666666666669,0) rotate(0)" style="opacity: 1;"><tspan x="0" y="4" style="font-family: Arial, sans-serif; font-size: 10px; fill: black; font-weight: normal;">Austria</tspan></text><text transform="rotate(-43.91681109185443) translate(241.66666666666669,0) rotate(0)" style="opacity: 0;"><tspan x="0" y="4" style="font-family: Arial, sans-serif; font-size: 10px; fill: black; font-weight: normal;">Belgium</tspan></text><text transform="rotate(-36.77642980935876) translate(241.66666666666669,0) rotate(0)" style="opacity: 0;"><tspan x="0" y="4" style="font-family: Arial, sans-serif; font-size: 10px; fill: black; font-weight: normal;">East Germany</tspan></text><text transform="rotate(-23.945696129404965) translate(241.66666666666669,0) rotate(0)" style="opacity: 1;"><tspan x="0" y="4" style="font-family: Arial, sans-serif; font-size: 10px; fill: black; font-weight: normal;">France</tspan></text><text transform="rotate(-8.341998844598493) translate(241.66666666666669,0) rotate(0)" style="opacity: 1;"><tspan x="0" y="4" style="font-family: Arial, sans-serif; font-size: 10px; fill: black; font-weight: normal;">Germany</tspan></text><text transform="rotate(-0.7914500288850235) translate(241.66666666666669,0) rotate(0)" style="opacity: 1;"><tspan x="0" y="4" style="font-family: Arial, sans-serif; font-size: 10px; fill: black; font-weight: normal;">Luxembourg</tspan></text><text transform="rotate(4.136337377238604) translate(241.66666666666669,0) rotate(0)" style="opacity: 1;"><tspan x="0" y="4" style="font-family: Arial, sans-serif; font-size: 10px; fill: black; font-weight: normal;">Netherlands</tspan></text><text transform="rotate(11.247833622183705) translate(241.66666666666669,0) rotate(0)" style="opacity: 1;"><tspan x="0" y="4" style="font-family: Arial, sans-serif; font-size: 10px; fill: black; font-weight: normal;">Switzerland</tspan></text><text transform="rotate(16.273830155979212) translate(241.66666666666669,0) rotate(0)" style="opacity: 0;"><tspan x="0" y="4" style="font-family: Arial, sans-serif; font-size: 10px; fill: black; font-weight: normal;">West Germany</tspan></text><text transform="rotate(19.75736568457539) translate(241.66666666666669,0) rotate(0)" style="opacity: 1;"><tspan x="0" y="4" style="font-family: Arial, sans-serif; font-size: 10px; fill: black; font-weight: normal;">Belarus</tspan></text><text transform="rotate(20.450606585788563) translate(241.66666666666669,0) rotate(0)" style="opacity: 0;"><tspan x="0" y="4" style="font-family: Arial, sans-serif; font-size: 10px; fill: black; font-weight: normal;">Bohemia</tspan></text><text transform="rotate(22.414789139225874) translate(241.66666666666669,0) rotate(0)" style="opacity: 0;"><tspan x="0" y="4" style="font-family: Arial, sans-serif; font-size: 10px; fill: black; font-weight: normal;">Bulgaria</tspan></text><text transform="rotate(26.562680531484688) translate(241.66666666666669,0) rotate(0)" style="opacity: 0;"><tspan x="0" y="4" style="font-family: Arial, sans-serif; font-size: 10px; fill: black; font-weight: normal;">Czech Republic</tspan></text><text transform="rotate(35.0202195262854) translate(241.66666666666669,0) rotate(0)" style="opacity: 1;"><tspan x="0" y="4" style="font-family: Arial, sans-serif; font-size: 10px; fill: black; font-weight: normal;">Hungary</tspan></text><text transform="rotate(41.53090699017909) translate(241.66666666666669,0) rotate(0)" style="opacity: 0;"><tspan x="0" y="4" style="font-family: Arial, sans-serif; font-size: 10px; fill: black; font-weight: normal;">International Olympic Committee Mixed teams</tspan></text><text transform="rotate(43.09647602541884) translate(241.66666666666669,0) rotate(0)" style="opacity: 0;"><tspan x="0" y="4" style="font-family: Arial, sans-serif; font-size: 10px; fill: black; font-weight: normal;">International Olympic Committee Unified Team</tspan></text><text transform="rotate(44.41941074523399) translate(241.66666666666669,0) rotate(0)" style="opacity: 0;"><tspan x="0" y="4" style="font-family: Arial, sans-serif; font-size: 10px; fill: black; font-weight: normal;">Moldova</tspan></text><text transform="rotate(47.40612362796074) translate(241.66666666666669,0) rotate(0)" style="opacity: 1;"><tspan x="0" y="4" style="font-family: Arial, sans-serif; font-size: 10px; fill: black; font-weight: normal;">Poland</tspan></text><text transform="rotate(54.05545927209707) translate(241.66666666666669,0) rotate(0)" style="opacity: 0;"><tspan x="0" y="4" style="font-family: Arial, sans-serif; font-size: 10px; fill: black; font-weight: normal;">Romania</tspan></text><text transform="rotate(62.18948584633162) translate(241.66666666666669,0) rotate(0)" style="opacity: 1;"><tspan x="0" y="4" style="font-family: Arial, sans-serif; font-size: 10px; fill: black; font-weight: normal;">Russia</tspan></text><text transform="rotate(66.72443674176779) translate(241.66666666666669,0) rotate(0)" style="opacity: 0;"><tspan x="0" y="4" style="font-family: Arial, sans-serif; font-size: 10px; fill: black; font-weight: normal;">Russian Empire</tspan></text><text transform="rotate(67.0190641247834) translate(241.66666666666669,0) rotate(0)" style="opacity: 0;"><tspan x="0" y="4" style="font-family: Arial, sans-serif; font-size: 10px; fill: black; font-weight: normal;">Slovakia</tspan></text><text transform="rotate(79.05257076834204) translate(241.66666666666669,0) rotate(0)" style="opacity: 1;"><tspan x="0" y="4" style="font-family: Arial, sans-serif; font-size: 10px; fill: black; font-weight: normal;">Soviet Union</tspan></text><text transform="rotate(91.88908145580592) translate(241.66666666666669,0) rotate(180)" style="opacity: 1;"><tspan x="0" y="4" style="font-family: Arial, sans-serif; font-size: 10px; fill: black; font-weight: normal;">Ukraine</tspan></text><text transform="rotate(92.89428076256499) translate(241.66666666666669,0) rotate(180)" style="opacity: 0;"><tspan x="0" y="4" style="font-family: Arial, sans-serif; font-size: 10px; fill: black; font-weight: normal;">Bermuda</tspan></text><text transform="rotate(96.64933564413636) translate(241.66666666666669,0) rotate(180)" style="opacity: 1;"><tspan x="0" y="4" style="font-family: Arial, sans-serif; font-size: 10px; fill: black; font-weight: normal;">Canada</tspan></text><text transform="rotate(128.38821490467936) translate(241.66666666666669,0) rotate(180)" style="opacity: 1;"><tspan x="0" y="4" style="font-family: Arial, sans-serif; font-size: 10px; fill: black; font-weight: normal;">United States</tspan></text><text transform="rotate(156.38359329867126) translate(241.66666666666669,0) rotate(180)" style="opacity: 1;"><tspan x="0" y="4" style="font-family: Arial, sans-serif; font-size: 10px; fill: black; font-weight: normal;">Botswana</tspan></text><text transform="rotate(156.39514731369158) translate(241.66666666666669,0) rotate(180)" style="opacity: 0;"><tspan x="0" y="4" style="font-family: Arial, sans-serif; font-size: 10px; fill: black; font-weight: normal;">Burundi</tspan></text><text transform="rotate(156.5337954939342) translate(241.66666666666669,0) rotate(180)" style="opacity: 0;"><tspan x="0" y="4" style="font-family: Arial, sans-serif; font-size: 10px; fill: black; font-weight: normal;">Cameroon</tspan></text><text transform="rotate(156.67244367417683) translate(241.66666666666669,0) rotate(180)" style="opacity: 0;"><tspan x="0" y="4" style="font-family: Arial, sans-serif; font-size: 10px; fill: black; font-weight: normal;">Djibouti</tspan></text><text transform="rotate(156.6839976891971) translate(241.66666666666669,0) rotate(180)" style="opacity: 0;"><tspan x="0" y="4" style="font-family: Arial, sans-serif; font-size: 10px; fill: black; font-weight: normal;">Eritrea</tspan></text><text transform="rotate(156.94974003466217) translate(241.66666666666669,0) rotate(180)" style="opacity: 0;"><tspan x="0" y="4" style="font-family: Arial, sans-serif; font-size: 10px; fill: black; font-weight: normal;">Ethiopia</tspan></text><text transform="rotate(157.21548238012727) translate(241.66666666666669,0) rotate(180)" style="opacity: 0;"><tspan x="0" y="4" style="font-family: Arial, sans-serif; font-size: 10px; fill: black; font-weight: normal;">Gabon</tspan></text><text transform="rotate(157.3136915077991) translate(241.66666666666669,0) rotate(180)" style="opacity: 0;"><tspan x="0" y="4" style="font-family: Arial, sans-serif; font-size: 10px; fill: black; font-weight: normal;">Ghana</tspan></text><text transform="rotate(157.41190063547094) translate(241.66666666666669,0) rotate(180)" style="opacity: 0;"><tspan x="0" y="4" style="font-family: Arial, sans-serif; font-size: 10px; fill: black; font-weight: normal;">Ivory Coast</tspan></text><text transform="rotate(157.9549393414213) translate(241.66666666666669,0) rotate(180)" style="opacity: 0;"><tspan x="0" y="4" style="font-family: Arial, sans-serif; font-size: 10px; fill: black; font-weight: normal;">Kenya</tspan></text><text transform="rotate(158.49797804737165) translate(241.66666666666669,0) rotate(180)" style="opacity: 0;"><tspan x="0" y="4" style="font-family: Arial, sans-serif; font-size: 10px; fill: black; font-weight: normal;">Mauritius</tspan></text><text transform="rotate(158.51530906990203) translate(241.66666666666669,0) rotate(180)" style="opacity: 0;"><tspan x="0" y="4" style="font-family: Arial, sans-serif; font-size: 10px; fill: black; font-weight: normal;">Mozambique</tspan></text><text transform="rotate(158.54997111496266) translate(241.66666666666669,0) rotate(180)" style="opacity: 0;"><tspan x="0" y="4" style="font-family: Arial, sans-serif; font-size: 10px; fill: black; font-weight: normal;">Namibia</tspan></text><text transform="rotate(158.57885615251323) translate(241.66666666666669,0) rotate(180)" style="opacity: 0;"><tspan x="0" y="4" style="font-family: Arial, sans-serif; font-size: 10px; fill: black; font-weight: normal;">Niger</tspan></text><text transform="rotate(159.06990179087256) translate(241.66666666666669,0) rotate(180)" style="opacity: 0;"><tspan x="0" y="4" style="font-family: Arial, sans-serif; font-size: 10px; fill: black; font-weight: normal;">Nigeria</tspan></text><text transform="rotate(159.56094742923193) translate(241.66666666666669,0) rotate(180)" style="opacity: 0;"><tspan x="0" y="4" style="font-family: Arial, sans-serif; font-size: 10px; fill: black; font-weight: normal;">Senegal</tspan></text><text transform="rotate(160.17908723281366) translate(241.66666666666669,0) rotate(180)" style="opacity: 0;"><tspan x="0" y="4" style="font-family: Arial, sans-serif; font-size: 10px; fill: black; font-weight: normal;">South Africa</tspan></text><text transform="rotate(160.79722703639547) translate(241.66666666666669,0) rotate(180)" style="opacity: 0;"><tspan x="0" y="4" style="font-family: Arial, sans-serif; font-size: 10px; fill: black; font-weight: normal;">Sudan</tspan></text><text transform="rotate(160.81455805892574) translate(241.66666666666669,0) rotate(180)" style="opacity: 0;"><tspan x="0" y="4" style="font-family: Arial, sans-serif; font-size: 10px; fill: black; font-weight: normal;">Tanzania</tspan></text><text transform="rotate(160.83188908145613) translate(241.66666666666669,0) rotate(180)" style="opacity: 0;"><tspan x="0" y="4" style="font-family: Arial, sans-serif; font-size: 10px; fill: black; font-weight: normal;">Togo</tspan></text><text transform="rotate(160.878105141537) translate(241.66666666666669,0) rotate(180)" style="opacity: 0;"><tspan x="0" y="4" style="font-family: Arial, sans-serif; font-size: 10px; fill: black; font-weight: normal;">Uganda</tspan></text><text transform="rotate(160.93009820912798) translate(241.66666666666669,0) rotate(180)" style="opacity: 0;"><tspan x="0" y="4" style="font-family: Arial, sans-serif; font-size: 10px; fill: black; font-weight: normal;">Zambia</tspan></text><text transform="rotate(161.07452339688075) translate(241.66666666666669,0) rotate(180)" style="opacity: 0;"><tspan x="0" y="4" style="font-family: Arial, sans-serif; font-size: 10px; fill: black; font-weight: normal;">Zimbabwe</tspan></text><text transform="rotate(165.8694396302715) translate(241.66666666666669,0) rotate(180)" style="opacity: 1;"><tspan x="0" y="4" style="font-family: Arial, sans-serif; font-size: 10px; fill: black; font-weight: normal;">China</tspan></text><text transform="rotate(170.78567302137492) translate(241.66666666666669,0) rotate(180)" style="opacity: 1;"><tspan x="0" y="4" style="font-family: Arial, sans-serif; font-size: 10px; fill: black; font-weight: normal;">Chinese Taipei</tspan></text><text transform="rotate(171.06296938186023) translate(241.66666666666669,0) rotate(180)" style="opacity: 0;"><tspan x="0" y="4" style="font-family: Arial, sans-serif; font-size: 10px; fill: black; font-weight: normal;">Hong Kong</tspan></text><text transform="rotate(175.63835932986711) translate(241.66666666666669,0) rotate(180)" style="opacity: 1;"><tspan x="0" y="4" style="font-family: Arial, sans-serif; font-size: 10px; fill: black; font-weight: normal;">Japan</tspan></text><text transform="rotate(180.32928942807627) translate(241.66666666666669,0) rotate(180)" style="opacity: 1;"><tspan x="0" y="4" style="font-family: Arial, sans-serif; font-size: 10px; fill: black; font-weight: normal;">Mongolia</tspan></text><text transform="rotate(180.80300404390522) translate(241.66666666666669,0) rotate(180)" style="opacity: 0;"><tspan x="0" y="4" style="font-family: Arial, sans-serif; font-size: 10px; fill: black; font-weight: normal;">North Korea</tspan></text><text transform="rotate(184.19410745233967) translate(241.66666666666669,0) rotate(180)" style="opacity: 1;"><tspan x="0" y="4" style="font-family: Arial, sans-serif; font-size: 10px; fill: black; font-weight: normal;">South Korea</tspan></text><text transform="rotate(187.90872328134031) translate(241.66666666666669,0) rotate(180)" style="opacity: 1;"><tspan x="0" y="4" style="font-family: Arial, sans-serif; font-size: 10px; fill: black; font-weight: normal;">Croatia</tspan></text><text transform="rotate(189.42229924898902) translate(241.66666666666669,0) rotate(180)" style="opacity: 0;"><tspan x="0" y="4" style="font-family: Arial, sans-serif; font-size: 10px; fill: black; font-weight: normal;">Greece</tspan></text><text transform="rotate(197.7642980935875) translate(241.66666666666669,0) rotate(180)" style="opacity: 1;"><tspan x="0" y="4" style="font-family: Arial, sans-serif; font-size: 10px; fill: black; font-weight: normal;">Italy</tspan></text><text transform="rotate(205.25707683419984) translate(241.66666666666669,0) rotate(180)" style="opacity: 1;"><tspan x="0" y="4" style="font-family: Arial, sans-serif; font-size: 10px; fill: black; font-weight: normal;">Macedonia</tspan></text><text transform="rotate(205.3437319468515) translate(241.66666666666669,0) rotate(180)" style="opacity: 0;"><tspan x="0" y="4" style="font-family: Arial, sans-serif; font-size: 10px; fill: black; font-weight: normal;">Montenegro</tspan></text><text transform="rotate(205.6152512998267) translate(241.66666666666669,0) rotate(180)" style="opacity: 0;"><tspan x="0" y="4" style="font-family: Arial, sans-serif; font-size: 10px; fill: black; font-weight: normal;">Portugal</tspan></text><text transform="rotate(205.98497978047374) translate(241.66666666666669,0) rotate(180)" style="opacity: 0;"><tspan x="0" y="4" style="font-family: Arial, sans-serif; font-size: 10px; fill: black; font-weight: normal;">Serbia</tspan></text><text transform="rotate(206.2449451184287) translate(241.66666666666669,0) rotate(180)" style="opacity: 0;"><tspan x="0" y="4" style="font-family: Arial, sans-serif; font-size: 10px; fill: black; font-weight: normal;">Serbia and Montenegro</tspan></text><text transform="rotate(206.4760254188331) translate(241.66666666666669,0) rotate(180)" style="opacity: 0;"><tspan x="0" y="4" style="font-family: Arial, sans-serif; font-size: 10px; fill: black; font-weight: normal;">Slovenia</tspan></text><text transform="rotate(209.17966493356448) translate(241.66666666666669,0) rotate(180)" style="opacity: 0;"><tspan x="0" y="4" style="font-family: Arial, sans-serif; font-size: 10px; fill: black; font-weight: normal;">Spain</tspan></text><text transform="rotate(214.24610051993074) translate(241.66666666666669,0) rotate(180)" style="opacity: 0;"><tspan x="0" y="4" style="font-family: Arial, sans-serif; font-size: 10px; fill: black; font-weight: normal;">Yugoslavia</tspan></text><text transform="rotate(219.68804159445403) translate(241.66666666666669,0) rotate(180)" style="opacity: 1;"><tspan x="0" y="4" style="font-family: Arial, sans-serif; font-size: 10px; fill: black; font-weight: normal;">Denmark</tspan></text><text transform="rotate(222.84228769497395) translate(241.66666666666669,0) rotate(180)" style="opacity: 0;"><tspan x="0" y="4" style="font-family: Arial, sans-serif; font-size: 10px; fill: black; font-weight: normal;">Estonia</tspan></text><text transform="rotate(225.7019064124783) translate(241.66666666666669,0) rotate(180)" style="opacity: 0;"><tspan x="0" y="4" style="font-family: Arial, sans-serif; font-size: 10px; fill: black; font-weight: normal;">Finland</tspan></text><text transform="rotate(238.27267475447718) translate(241.66666666666669,0) rotate(180)" style="opacity: 1;"><tspan x="0" y="4" style="font-family: Arial, sans-serif; font-size: 10px; fill: black; font-weight: normal;">Great Britain</tspan></text><text transform="rotate(248.30733679953784) translate(241.66666666666669,0) rotate(180)" style="opacity: 1;"><tspan x="0" y="4" style="font-family: Arial, sans-serif; font-size: 10px; fill: black; font-weight: normal;">Iceland</tspan></text><text transform="rotate(248.57885615251303) translate(241.66666666666669,0) rotate(180)" style="opacity: 0;"><tspan x="0" y="4" style="font-family: Arial, sans-serif; font-size: 10px; fill: black; font-weight: normal;">Ireland</tspan></text><text transform="rotate(248.86770652801852) translate(241.66666666666669,0) rotate(180)" style="opacity: 0;"><tspan x="0" y="4" style="font-family: Arial, sans-serif; font-size: 10px; fill: black; font-weight: normal;">Latvia</tspan></text><text transform="rotate(249.30098209127675) translate(241.66666666666669,0) rotate(180)" style="opacity: 0;"><tspan x="0" y="4" style="font-family: Arial, sans-serif; font-size: 10px; fill: black; font-weight: normal;">Lithuania</tspan></text><text transform="rotate(252.81917966493359) translate(241.66666666666669,0) rotate(180)" style="opacity: 0;"><tspan x="0" y="4" style="font-family: Arial, sans-serif; font-size: 10px; fill: black; font-weight: normal;">Norway</tspan></text><text transform="rotate(262.050837666089) translate(241.66666666666669,0) rotate(180)" style="opacity: 1;"><tspan x="0" y="4" style="font-family: Arial, sans-serif; font-size: 10px; fill: black; font-weight: normal;">Sweden</tspan></text><text transform="rotate(268.3015597920278) translate(241.66666666666669,0) rotate(180)" style="opacity: 0;"><tspan x="0" y="4" style="font-family: Arial, sans-serif; font-size: 10px; fill: black; font-weight: normal;">Indonesia</tspan></text><text transform="rotate(268.5673021374928) translate(241.66666666666669,0) rotate(180)" style="opacity: 0;"><tspan x="0" y="4" style="font-family: Arial, sans-serif; font-size: 10px; fill: black; font-weight: normal;">Malaysia</tspan></text><text transform="rotate(268.66551126516464) translate(241.66666666666669,0) rotate(180)" style="opacity: 0;"><tspan x="0" y="4" style="font-family: Arial, sans-serif; font-size: 10px; fill: black; font-weight: normal;">Philippines</tspan></text><text transform="rotate(268.7637203928365) translate(241.66666666666669,0) rotate(180)" style="opacity: 0;"><tspan x="0" y="4" style="font-family: Arial, sans-serif; font-size: 10px; fill: black; font-weight: normal;">Singapore</tspan></text><text transform="rotate(268.9543616406701) translate(241.66666666666669,0) rotate(180)" style="opacity: 0;"><tspan x="0" y="4" style="font-family: Arial, sans-serif; font-size: 10px; fill: black; font-weight: normal;">Thailand</tspan></text><text transform="rotate(269.110340843443) translate(241.66666666666669,0) rotate(180)" style="opacity: 0;"><tspan x="0" y="4" style="font-family: Arial, sans-serif; font-size: 10px; fill: black; font-weight: normal;">Vietnam</tspan></text><text transform="rotate(269.4049682264587) translate(241.66666666666669,0) rotate(180)" style="opacity: 0;"><tspan x="0" y="4" style="font-family: Arial, sans-serif; font-size: 10px; fill: black; font-weight: normal;">Kazakhstan</tspan></text><text transform="rotate(269.70537261698445) translate(241.66666666666669,0) rotate(180)" style="opacity: 0;"><tspan x="0" y="4" style="font-family: Arial, sans-serif; font-size: 10px; fill: black; font-weight: normal;">Kyrgyzstan</tspan></text><text transform="rotate(269.74003466204516) translate(241.66666666666669,0) rotate(180)" style="opacity: 0;"><tspan x="0" y="4" style="font-family: Arial, sans-serif; font-size: 10px; fill: black; font-weight: normal;">Tajikistan</tspan></text><text transform="rotate(269.87290583477767) translate(241.66666666666669,0) rotate(180)" style="opacity: 0;"><tspan x="0" y="4" style="font-family: Arial, sans-serif; font-size: 10px; fill: black; font-weight: normal;">Uzbekistan</tspan></text><text transform="rotate(269.9942229924899) translate(241.66666666666669,0) rotate(180)" style="opacity: 0;"><tspan x="0" y="4" style="font-family: Arial, sans-serif; font-size: 10px; fill: black; font-weight: normal;">Tonga</tspan></text></g></svg>