<svg xmlns="http://www.w3.org/2000/svg" width="805" height="600"><rect width="805" height="600" x="0" y="0" fill="#FFFFFF" id="background"/><g transform="translate(10,10)" id="visualization"><g><rect x="0" y="1.1368683772161603e-13" height="0.3470319634702719" width="5" fill="black"><title>Tip Dunk Shot: 1</title></rect><rect x="0" y="5.347031963470386" height="0.3470319634702719" width="5" fill="black"><title>Turnaround Fadeaway Bank Jump Shot: 1</title></rect><rect x="0" y="10.694063926940657" height="0.3470319634702719" width="5" fill="black"><title>Hook Bank Shot: 1</title></rect><rect x="0" y="16.04109589041093" height="0.3470319634702719" width="5" fill="black"><title>Running Alley Oop Dunk Shot: 1</title></rect><rect x="0" y="21.3881278538812" height="0.3470319634702719" width="5" fill="black"><title>Running Reverse Dunk Shot: 1</title></rect><rect x="0" y="26.735159817351473" height="0.6940639269406574" width="5" fill="black"><title>Putback Dunk Shot: 2</title></rect><rect x="0" y="32.42922374429213" height="0.6940639269406574" width="5" fill="black"><title>Turnaround Bank Hook Shot: 2</title></rect><rect x="0" y="38.12328767123279" height="0.6940639269406574" width="5" fill="black"><title>Jump Bank Shot: 2</title></rect><rect x="0" y="43.817351598173445" height="0.6940639269406574" width="5" fill="black"><title>Running Reverse Layup Shot: 2</title></rect><rect x="0" y="49.5114155251141" height="1.0410958904109862" width="5" fill="black"><title>Finger Roll Layup Shot: 3</title></rect><rect x="0" y="55.55251141552509" height="1.388127853881258" width="5" fill="black"><title>Hook Shot: 4</title></rect><rect x="0" y="61.94063926940635" height="1.388127853881258" width="5" fill="black"><title>Alley Oop Dunk Shot: 4</title></rect><rect x="0" y="68.3287671232876" height="1.3881278538813149" width="5" fill="black"><title>Driving Hook Shot: 4</title></rect><rect x="0" y="74.71689497716892" height="1.3881278538813149" width="5" fill="black"><title>Driving Bank Hook Shot: 4</title></rect><rect x="0" y="81.10502283105023" height="1.7351598173515868" width="5" fill="black"><title>Running Jump Shot: 5</title></rect><rect x="0" y="87.84018264840182" height="1.7351598173515868" width="5" fill="black"><title>Dunk Shot: 5</title></rect><rect x="0" y="94.57534246575341" height="2.429223744292244" width="5" fill="black"><title>Turnaround Hook Shot: 7</title></rect><rect x="0" y="102.00456621004565" height="2.429223744292244" width="5" fill="black"><title>Alley Oop Layup shot: 7</title></rect><rect x="0" y="109.4337899543379" height="2.429223744292244" width="5" fill="black"><title>Running Finger Roll Layup Shot: 7</title></rect><rect x="0" y="116.86301369863014" height="3.1232876712329016" width="5" fill="black"><title>Tip Layup Shot: 9</title></rect><rect x="0" y="124.98630136986304" height="3.4703196347031735" width="5" fill="black"><title>Driving Reverse Layup Shot: 10</title></rect><rect x="520" y="87.49999999999997" height="4.164383561643831" width="5" fill="black"><title>Right Corner 3: 12</title></rect><rect x="0" y="133.45662100456622" height="5.205479452054789" width="5" fill="black"><title>Putback Layup Shot: 15</title></rect><rect x="520" y="96.6643835616438" height="5.205479452054874" width="5" fill="black"><title>Left Corner 3: 15</title></rect><rect x="0" y="143.662100456621" height="5.552511415525089" width="5" fill="black"><title>Running Pull-Up Jump Shot: 16</title></rect><rect x="0" y="154.2146118721461" height="5.552511415525089" width="5" fill="black"><title>Floating Jump shot: 16</title></rect><rect x="0" y="164.76712328767118" height="5.899543378995418" width="5" fill="black"><title>Cutting Dunk Shot: 17</title></rect><rect x="0" y="175.6666666666666" height="6.246575342465746" width="5" fill="black"><title>Driving Floating Bank Jump Shot: 18</title></rect><rect x="0" y="186.91324200913235" height="6.593607305936075" width="5" fill="black"><title>Reverse Layup Shot: 19</title></rect><rect x="0" y="198.50684931506842" height="6.593607305936075" width="5" fill="black"><title>Turnaround Jump Shot: 19</title></rect><rect x="0" y="210.1004566210045" height="6.940639269406404" width="5" fill="black"><title>Cutting Layup Shot: 20</title></rect><rect x="0" y="222.0410958904109" height="7.6347031963470045" width="5" fill="black"><title>Driving Floating Jump Shot: 22</title></rect><rect x="0" y="234.6757990867579" height="9.716894977168977" width="5" fill="black"><title>Driving Finger Roll Layup Shot: 28</title></rect><rect x="0" y="249.39269406392688" height="10.063926940639277" width="5" fill="black"><title>Running Dunk Shot: 29</title></rect><rect x="0" y="264.45662100456616" height="10.063926940639249" width="5" fill="black"><title>Driving Dunk Shot: 29</title></rect><rect x="0" y="279.5205479452054" height="14.575342465753408" width="5" fill="black"><title>Turnaround Fadeaway shot: 42</title></rect><rect x="0" y="299.0958904109588" height="19.433789954337897" width="5" fill="black"><title>Running Layup Shot: 56</title></rect><rect x="0" y="323.5296803652967" height="19.780821917808225" width="5" fill="black"><title>Fadeaway Jump Shot: 57</title></rect><rect x="0" y="348.31050228310494" height="21.16894977168954" width="5" fill="black"><title>Layup Shot: 61</title></rect><rect x="0" y="374.4794520547945" height="26.027397260273972" width="5" fill="black"><title>Pullup Jump shot: 75</title></rect><rect x="0" y="405.50684931506845" height="27.068493150684958" width="5" fill="black"><title>Step Back Jump shot: 78</title></rect><rect x="520" y="106.86986301369868" height="42.337899543378995" width="5" fill="black"><title>In The Paint (Non-RA): 122</title></rect><rect x="0" y="437.5753424657534" height="49.27853881278537" width="5" fill="black"><title>Driving Layup Shot: 142</title></rect><rect x="520" y="154.20776255707767" height="60.383561643835606" width="5" fill="black"><title>Mid-Range: 174</title></rect><rect x="0" y="491.8538812785388" height="88.14611872146122" width="5" fill="black"><title>Jump Shot: 254</title></rect><rect x="520" y="219.59132420091328" height="104.45662100456622" width="5" fill="black"><title>Above the Break 3: 301</title></rect><rect x="260" y="97.5" height="113.47945205479454" width="5" fill="black"><title>3PT Field Goal: 327</title></rect><rect x="520" y="329.0479452054795" height="163.4520547945205" width="5" fill="black"><title>Restricted Area: 471</title></rect><rect x="780" y="97.5" height="186.3561643835617" width="5" fill="black"><title>0: 537</title></rect><rect x="780" y="288.8561643835617" height="193.6438356164383" width="5" fill="black"><title>1: 558</title></rect><rect x="260" y="215.97945205479454" height="266.52054794520546" width="5" fill="black"><title>2PT Field Goal: 768</title></rect></g><g fill="none" stroke-opacity="1"><g style="mix-blend-mode: multiply;"><path d="M5,254.4246575342465C132.5,254.4246575342465,132.5,309.1575342465753,260,309.1575342465753" stroke="#cccccc" stroke-width="10.063926940639268"/><title>Running Dunk Shot → 2PT Field Goal: 29</title></g><g style="mix-blend-mode: multiply;"><path d="M5,178.78995433789947C132.5,178.78995433789947,132.5,263.5228310502284,260,263.5228310502284" stroke="#7f7f7f" stroke-width="6.2465753424657535"/><title>Driving Floating Bank Jump Shot → 2PT Field Goal: 18</title></g><g style="mix-blend-mode: multiply;"><path d="M5,308.81278538812774C132.5,308.81278538812774,132.5,348.5456621004565,260,348.5456621004565" stroke="#cccccc" stroke-width="19.433789954337897"/><title>Running Layup Shot → 2PT Field Goal: 56</title></g><g style="mix-blend-mode: multiply;"><path d="M5,136.05936073059362C132.5,136.05936073059362,132.5,245.99771689497723,260,245.99771689497723" stroke="#cccccc" stroke-width="5.205479452054794"/><title>Putback Layup Shot → 2PT Field Goal: 15</title></g><g style="mix-blend-mode: multiply;"><path d="M5,462.2146118721461C132.5,462.2146118721461,132.5,441.55022831050223,260,441.55022831050223" stroke="#cccccc" stroke-width="49.278538812785385"/><title>Driving Layup Shot → 2PT Field Goal: 142</title></g><g style="mix-blend-mode: multiply;"><path d="M5,95.78995433789953C132.5,95.78995433789953,132.5,230.72831050228314,260,230.72831050228314" stroke="#cccccc" stroke-width="2.429223744292237"/><title>Turnaround Hook Shot → 2PT Field Goal: 7</title></g><g style="mix-blend-mode: multiply;"><path d="M5,381.94063926940635C132.5,381.94063926940635,132.5,114.33105022831049,260,114.33105022831049" stroke="#cccccc" stroke-width="14.922374429223744"/><title>Pullup Jump shot → 3PT Field Goal: 43</title></g><g style="mix-blend-mode: multiply;"><path d="M5,358.8949771689497C132.5,358.8949771689497,132.5,385.5045662100456,260,385.5045662100456" stroke="#cccccc" stroke-width="21.168949771689498"/><title>Layup Shot → 2PT Field Goal: 61</title></g><g style="mix-blend-mode: multiply;"><path d="M5,527.7716894977168C132.5,527.7716894977168,132.5,175.06164383561642,260,175.06164383561642" stroke="#cccccc" stroke-width="71.83561643835615"/><title>Jump Shot → 3PT Field Goal: 207</title></g><g style="mix-blend-mode: multiply;"><path d="M5,146.2648401826484C132.5,146.2648401826484,132.5,101.14383561643835,260,101.14383561643835" stroke="#cccccc" stroke-width="5.205479452054794"/><title>Running Pull-Up Jump Shot → 3PT Field Goal: 15</title></g><g style="mix-blend-mode: multiply;"><path d="M5,213.5707762557077C132.5,213.5707762557077,132.5,283.30365296803654,260,283.30365296803654" stroke="#d62728" stroke-width="6.940639269406392"/><title>Cutting Layup Shot → 2PT Field Goal: 20</title></g><g style="mix-blend-mode: multiply;"><path d="M5,394.9543378995433C132.5,394.9543378995433,132.5,401.6415525114154,260,401.6415525114154" stroke="#cccccc" stroke-width="11.105022831050228"/><title>Pullup Jump shot → 2PT Field Goal: 32</title></g><g style="mix-blend-mode: multiply;"><path d="M5,167.7168949771689C132.5,167.7168949771689,132.5,257.44977168949777,260,257.44977168949777" stroke="#2ca02c" stroke-width="5.899543378995434"/><title>Cutting Dunk Shot → 2PT Field Goal: 17</title></g><g style="mix-blend-mode: multiply;"><path d="M5,414.18264840182644C132.5,414.18264840182644,132.5,130.46803652968035,260,130.46803652968035" stroke="#cccccc" stroke-width="17.35159817351598"/><title>Step Back Jump shot → 3PT Field Goal: 50</title></g><g style="mix-blend-mode: multiply;"><path d="M5,334.9817351598173C132.5,334.9817351598173,132.5,366.59132420091316,260,366.59132420091316" stroke="#cccccc" stroke-width="16.65753424657534"/><title>Fadeaway Jump Shot → 2PT Field Goal: 48</title></g><g style="mix-blend-mode: multiply;"><path d="M5,56.246575342465725C132.5,56.246575342465725,132.5,222.22602739726028,260,222.22602739726028" stroke="#cccccc" stroke-width="1.3881278538812785"/><title>Hook Shot → 2PT Field Goal: 4</title></g><g style="mix-blend-mode: multiply;"><path d="M5,571.8447488584475C132.5,571.8447488584475,132.5,474.3447488584474,260,474.3447488584474" stroke="#cccccc" stroke-width="16.310502283105023"/><title>Jump Shot → 2PT Field Goal: 47</title></g><g style="mix-blend-mode: multiply;"><path d="M5,269.4885844748858C132.5,269.4885844748858,132.5,319.2214611872146,260,319.2214611872146" stroke="#8c564b" stroke-width="10.063926940639268"/><title>Driving Dunk Shot → 2PT Field Goal: 29</title></g><g style="mix-blend-mode: multiply;"><path d="M5,156.99086757990864C132.5,156.99086757990864,132.5,251.72374429223748,260,251.72374429223748" stroke="#cccccc" stroke-width="5.552511415525114"/><title>Floating Jump shot → 2PT Field Goal: 16</title></g><g style="mix-blend-mode: multiply;"><path d="M5,225.8584474885844C132.5,225.8584474885844,132.5,290.5913242009133,260,290.5913242009133" stroke="#bcbd22" stroke-width="7.634703196347031"/><title>Driving Floating Jump Shot → 2PT Field Goal: 22</title></g><g style="mix-blend-mode: multiply;"><path d="M5,103.21917808219177C132.5,103.21917808219177,132.5,233.15753424657538,260,233.15753424657538" stroke="#ff7f0e" stroke-width="2.429223744292237"/><title>Alley Oop Layup shot → 2PT Field Goal: 7</title></g><g style="mix-blend-mode: multiply;"><path d="M5,149.04109589041096C132.5,149.04109589041096,132.5,248.77397260273978,260,248.77397260273978" stroke="#cccccc" stroke-width="1"/><title>Running Pull-Up Jump Shot → 2PT Field Goal: 1</title></g><g style="mix-blend-mode: multiply;"><path d="M5,239.53424657534237C132.5,239.53424657534237,132.5,299.26712328767127,260,299.26712328767127" stroke="#e377c2" stroke-width="9.716894977168948"/><title>Driving Finger Roll Layup Shot → 2PT Field Goal: 28</title></g><g style="mix-blend-mode: multiply;"><path d="M5,50.03196347031958C132.5,50.03196347031958,132.5,221.0114155251142,260,221.0114155251142" stroke="#cccccc" stroke-width="1.0410958904109588"/><title>Finger Roll Layup Shot → 2PT Field Goal: 3</title></g><g style="mix-blend-mode: multiply;"><path d="M5,427.7168949771689C132.5,427.7168949771689,132.5,412.05251141552503,260,412.05251141552503" stroke="#cccccc" stroke-width="9.716894977168948"/><title>Step Back Jump shot → 2PT Field Goal: 28</title></g><g style="mix-blend-mode: multiply;"><path d="M5,118.42465753424658C132.5,118.42465753424658,132.5,238.3630136986302,260,238.3630136986302" stroke="#cccccc" stroke-width="3.1232876712328768"/><title>Tip Layup Shot → 2PT Field Goal: 9</title></g><g style="mix-blend-mode: multiply;"><path d="M5,286.80821917808214C132.5,286.80821917808214,132.5,331.54109589041093,260,331.54109589041093" stroke="#cccccc" stroke-width="14.575342465753424"/><title>Turnaround Fadeaway shot → 2PT Field Goal: 42</title></g><g style="mix-blend-mode: multiply;"><path d="M5,27.08219178082179C132.5,27.08219178082179,132.5,218.0616438356165,260,218.0616438356165" stroke="#cccccc" stroke-width="1"/><title>Putback Dunk Shot → 2PT Field Goal: 2</title></g><g style="mix-blend-mode: multiply;"><path d="M5,190.21004566210038C132.5,190.21004566210038,132.5,269.94292237442926,260,269.94292237442926" stroke="#cccccc" stroke-width="6.5936073059360725"/><title>Reverse Layup Shot → 2PT Field Goal: 19</title></g><g style="mix-blend-mode: multiply;"><path d="M5,325.09132420091316C132.5,325.09132420091316,132.5,105.30821917808218,260,105.30821917808218" stroke="#cccccc" stroke-width="3.1232876712328768"/><title>Fadeaway Jump Shot → 3PT Field Goal: 9</title></g><g style="mix-blend-mode: multiply;"><path d="M5,110.64840182648402C132.5,110.64840182648402,132.5,235.58675799086762,260,235.58675799086762" stroke="#cccccc" stroke-width="2.429223744292237"/><title>Running Finger Roll Layup Shot → 2PT Field Goal: 7</title></g><g style="mix-blend-mode: multiply;"><path d="M5,201.80365296803646C132.5,201.80365296803646,132.5,276.53652968036533,260,276.53652968036533" stroke="#cccccc" stroke-width="6.5936073059360725"/><title>Turnaround Jump Shot → 2PT Field Goal: 19</title></g><g style="mix-blend-mode: multiply;"><path d="M5,32.77625570776245C132.5,32.77625570776245,132.5,218.75570776255714,260,218.75570776255714" stroke="#cccccc" stroke-width="1"/><title>Turnaround Bank Hook Shot → 2PT Field Goal: 2</title></g><g style="mix-blend-mode: multiply;"><path d="M5,62.63470319634698C132.5,62.63470319634698,132.5,223.61415525114157,260,223.61415525114157" stroke="#1f77b4" stroke-width="1.3881278538812785"/><title>Alley Oop Dunk Shot → 2PT Field Goal: 4</title></g><g style="mix-blend-mode: multiply;"><path d="M5,69.02283105022825C132.5,69.02283105022825,132.5,225.00228310502285,260,225.00228310502285" stroke="#17becf" stroke-width="1.3881278538812785"/><title>Driving Hook Shot → 2PT Field Goal: 4</title></g><g style="mix-blend-mode: multiply;"><path d="M5,0.1735159817352735C132.5,0.1735159817352735,132.5,216.1529680365297,260,216.1529680365297" stroke="#cccccc" stroke-width="1"/><title>Tip Dunk Shot → 2PT Field Goal: 1</title></g><g style="mix-blend-mode: multiply;"><path d="M5,126.72146118721464C132.5,126.72146118721464,132.5,241.6598173515982,260,241.6598173515982" stroke="#cccccc" stroke-width="3.470319634703196"/><title>Driving Reverse Layup Shot → 2PT Field Goal: 10</title></g><g style="mix-blend-mode: multiply;"><path d="M5,75.41095890410956C132.5,75.41095890410956,132.5,226.39041095890414,260,226.39041095890414" stroke="#9467bd" stroke-width="1.3881278538812785"/><title>Driving Bank Hook Shot → 2PT Field Goal: 4</title></g><g style="mix-blend-mode: multiply;"><path d="M5,81.62557077625571C132.5,81.62557077625571,132.5,98.02054794520548,260,98.02054794520548" stroke="#cccccc" stroke-width="1.0410958904109588"/><title>Running Jump Shot → 3PT Field Goal: 3</title></g><g style="mix-blend-mode: multiply;"><path d="M5,88.70776255707761C132.5,88.70776255707761,132.5,228.64611872146122,260,228.64611872146122" stroke="#cccccc" stroke-width="1.735159817351598"/><title>Dunk Shot → 2PT Field Goal: 5</title></g><g style="mix-blend-mode: multiply;"><path d="M5,38.47031963470311C132.5,38.47031963470311,132.5,219.44977168949777,260,219.44977168949777" stroke="#cccccc" stroke-width="1"/><title>Jump Bank Shot → 2PT Field Goal: 2</title></g><g style="mix-blend-mode: multiply;"><path d="M5,5.5205479452055455C132.5,5.5205479452055455,132.5,216.50000000000003,260,216.50000000000003" stroke="#cccccc" stroke-width="1"/><title>Turnaround Fadeaway Bank Jump Shot → 2PT Field Goal: 1</title></g><g style="mix-blend-mode: multiply;"><path d="M5,82.4931506849315C132.5,82.4931506849315,132.5,227.43150684931513,260,227.43150684931513" stroke="#cccccc" stroke-width="1"/><title>Running Jump Shot → 2PT Field Goal: 2</title></g><g style="mix-blend-mode: multiply;"><path d="M5,44.16438356164377C132.5,44.16438356164377,132.5,220.1438356164384,260,220.1438356164384" stroke="#cccccc" stroke-width="1"/><title>Running Reverse Layup Shot → 2PT Field Goal: 2</title></g><g style="mix-blend-mode: multiply;"><path d="M5,10.867579908675816C132.5,10.867579908675816,132.5,216.84703196347036,260,216.84703196347036" stroke="#cccccc" stroke-width="1"/><title>Hook Bank Shot → 2PT Field Goal: 1</title></g><g style="mix-blend-mode: multiply;"><path d="M5,16.21461187214609C132.5,16.21461187214609,132.5,217.1940639269407,260,217.1940639269407" stroke="#cccccc" stroke-width="1"/><title>Running Alley Oop Dunk Shot → 2PT Field Goal: 1</title></g><g style="mix-blend-mode: multiply;"><path d="M5,21.561643835616362C132.5,21.561643835616362,132.5,217.54109589041101,260,217.54109589041101" stroke="#cccccc" stroke-width="1"/><title>Running Reverse Dunk Shot → 2PT Field Goal: 1</title></g><g style="mix-blend-mode: multiply;"><path d="M265,400.7739726027398C392.5,400.7739726027398,392.5,410.7739726027398,520,410.7739726027398" stroke="#cccccc" stroke-width="163.45205479452054"/><title>2PT Field Goal → Restricted Area: 471</title></g><g style="mix-blend-mode: multiply;"><path d="M265,237.14840182648402C392.5,237.14840182648402,392.5,128.0388127853882,520,128.0388127853882" stroke="#cccccc" stroke-width="42.337899543378995"/><title>2PT Field Goal → In The Paint (Non-RA): 122</title></g><g style="mix-blend-mode: multiply;"><path d="M265,158.92465753424656C392.5,158.92465753424656,392.5,271.6461187214612,520,271.6461187214612" stroke="#cccccc" stroke-width="104.10958904109589"/><title>3PT Field Goal → Above the Break 3: 300</title></g><g style="mix-blend-mode: multiply;"><path d="M265,288.50913242009136C392.5,288.50913242009136,392.5,184.39954337899547,520,184.39954337899547" stroke="#cccccc" stroke-width="60.38356164383561"/><title>2PT Field Goal → Mid-Range: 174</title></g><g style="mix-blend-mode: multiply;"><path d="M265,104.26712328767123C392.5,104.26712328767123,392.5,99.2671232876712,520,99.2671232876712" stroke="#cccccc" stroke-width="5.205479452054794"/><title>3PT Field Goal → Left Corner 3: 15</title></g><g style="mix-blend-mode: multiply;"><path d="M265,99.58219178082192C392.5,99.58219178082192,392.5,89.58219178082189,520,89.58219178082189" stroke="#cccccc" stroke-width="4.164383561643835"/><title>3PT Field Goal → Right Corner 3: 12</title></g><g style="mix-blend-mode: multiply;"><path d="M265,318.8744292237443C392.5,318.8744292237443,392.5,323.8744292237443,520,323.8744292237443" stroke="#cccccc" stroke-width="1"/><title>2PT Field Goal → Above the Break 3: 1</title></g><g style="mix-blend-mode: multiply;"><path d="M525,434.3721461187215C652.5,434.3721461187215,652.5,424.3721461187215,780,424.3721461187215" stroke="#cccccc" stroke-width="116.25570776255707"/><title>Restricted Area → 1: 335</title></g><g style="mix-blend-mode: multiply;"><path d="M525,121.61872146118726C652.5,121.61872146118726,652.5,118.49543378995435,780,118.49543378995435" stroke="#cccccc" stroke-width="29.497716894977167"/><title>In The Paint (Non-RA) → 0: 85</title></g><g style="mix-blend-mode: multiply;"><path d="M525,352.6461187214612C652.5,352.6461187214612,652.5,260.2579908675799,780,260.2579908675799" stroke="#cccccc" stroke-width="47.19634703196347"/><title>Restricted Area → 0: 136</title></g><g style="mix-blend-mode: multiply;"><path d="M525,254.12100456621008C652.5,254.12100456621008,652.5,202.13013698630135,780,202.13013698630135" stroke="#cccccc" stroke-width="69.05936073059361"/><title>Above the Break 3 → 0: 199</title></g><g style="mix-blend-mode: multiply;"><path d="M525,201.5776255707763C652.5,201.5776255707763,652.5,317.83333333333337,780,317.83333333333337" stroke="#cccccc" stroke-width="26.027397260273972"/><title>Mid-Range → 1: 75</title></g><g style="mix-blend-mode: multiply;"><path d="M525,306.3493150684932C652.5,306.3493150684932,652.5,348.54566210045664,780,348.54566210045664" stroke="#cccccc" stroke-width="35.3972602739726"/><title>Above the Break 3 → 1: 102</title></g><g style="mix-blend-mode: multiply;"><path d="M525,171.3858447488585C652.5,171.3858447488585,652.5,150.42237442922374,780,150.42237442922374" stroke="#cccccc" stroke-width="34.35616438356164"/><title>Mid-Range → 0: 99</title></g><g style="mix-blend-mode: multiply;"><path d="M525,98.57305936073055C652.5,98.57305936073055,652.5,101.837899543379,780,101.837899543379" stroke="#cccccc" stroke-width="3.8173515981735155"/><title>Left Corner 3 → 0: 11</title></g><g style="mix-blend-mode: multiply;"><path d="M525,142.78767123287676C652.5,142.78767123287676,652.5,298.3995433789955,780,298.3995433789955" stroke="#cccccc" stroke-width="12.840182648401825"/><title>In The Paint (Non-RA) → 1: 37</title></g><g style="mix-blend-mode: multiply;"><path d="M525,90.79680365296801C652.5,90.79680365296801,652.5,289.7237442922375,780,289.7237442922375" stroke="#cccccc" stroke-width="1.735159817351598"/><title>Right Corner 3 → 1: 5</title></g><g style="mix-blend-mode: multiply;"><path d="M525,88.7146118721461C652.5,88.7146118721461,652.5,98.71461187214612,780,98.71461187214612" stroke="#cccccc" stroke-width="2.429223744292237"/><title>Right Corner 3 → 0: 7</title></g><g style="mix-blend-mode: multiply;"><path d="M525,101.17579908675796C652.5,101.17579908675796,652.5,291.28538812785393,780,291.28538812785393" stroke="#cccccc" stroke-width="1.3881278538812785"/><title>Left Corner 3 → 1: 4</title></g></g><g><text x="9" y="0.17351598173524962" text-anchor="start"><tspan alignment-baseline="middle" x="9" style="font-family: Arial, sans-serif; font-size: 10px; fill: black; font-weight: bold;">Tip Dunk Shot</tspan></text><text x="9" y="5.5205479452055215" text-anchor="start"><tspan alignment-baseline="middle" x="9" style="font-family: Arial, sans-serif; font-size: 10px; fill: black; font-weight: bold;">Turnaround Fadeaway Bank Jump Shot</tspan></text><text x="9" y="10.867579908675793" text-anchor="start"><tspan alignment-baseline="middle" x="9" style="font-family: Arial, sans-serif; font-size: 10px; fill: black; font-weight: bold;">Hook Bank Shot</tspan></text><text x="9" y="16.214611872146065" text-anchor="start"><tspan alignment-baseline="middle" x="9" style="font-family: Arial, sans-serif; font-size: 10px; fill: black; font-weight: bold;">Running Alley Oop Dunk Shot</tspan></text><text x="9" y="21.561643835616337" text-anchor="start"><tspan alignment-baseline="middle" x="9" style="font-family: Arial, sans-serif; font-size: 10px; fill: black; font-weight: bold;">Running Reverse Dunk Shot</tspan></text><text x="9" y="27.082191780821802" text-anchor="start"><tspan alignment-baseline="middle" x="9" style="font-family: Arial, sans-serif; font-size: 10px; fill: black; font-weight: bold;">Putback Dunk Shot</tspan></text><text x="9" y="32.77625570776246" text-anchor="start"><tspan alignment-baseline="middle" x="9" style="font-family: Arial, sans-serif; font-size: 10px; fill: black; font-weight: bold;">Turnaround Bank Hook Shot</tspan></text><text x="9" y="38.47031963470312" text-anchor="start"><tspan alignment-baseline="middle" x="9" style="font-family: Arial, sans-serif; font-size: 10px; fill: black; font-weight: bold;">Jump Bank Shot</tspan></text><text x="9" y="44.164383561643774" text-anchor="start"><tspan alignment-baseline="middle" x="9" style="font-family: Arial, sans-serif; font-size: 10px; fill: black; font-weight: bold;">Running Reverse Layup Shot</tspan></text><text x="9" y="50.031963470319596" text-anchor="start"><tspan alignment-baseline="middle" x="9" style="font-family: Arial, sans-serif; font-size: 10px; fill: black; font-weight: bold;">Finger Roll Layup Shot</tspan></text><text x="9" y="56.24657534246572" text-anchor="start"><tspan alignment-baseline="middle" x="9" style="font-family: Arial, sans-serif; font-size: 10px; fill: black; font-weight: bold;">Hook Shot</tspan></text><text x="9" y="62.634703196346976" text-anchor="start"><tspan alignment-baseline="middle" x="9" style="font-family: Arial, sans-serif; font-size: 10px; fill: black; font-weight: bold;">Alley Oop Dunk Shot</tspan></text><text x="9" y="69.02283105022826" text-anchor="start"><tspan alignment-baseline="middle" x="9" style="font-family: Arial, sans-serif; font-size: 10px; fill: black; font-weight: bold;">Driving Hook Shot</tspan></text><text x="9" y="75.41095890410958" text-anchor="start"><tspan alignment-baseline="middle" x="9" style="font-family: Arial, sans-serif; font-size: 10px; fill: black; font-weight: bold;">Driving Bank Hook Shot</tspan></text><text x="9" y="81.97260273972603" text-anchor="start"><tspan alignment-baseline="middle" x="9" style="font-family: Arial, sans-serif; font-size: 10px; fill: black; font-weight: bold;">Running Jump Shot</tspan></text><text x="9" y="88.70776255707761" text-anchor="start"><tspan alignment-baseline="middle" x="9" style="font-family: Arial, sans-serif; font-size: 10px; fill: black; font-weight: bold;">Dunk Shot</tspan></text><text x="9" y="95.78995433789953" text-anchor="start"><tspan alignment-baseline="middle" x="9" style="font-family: Arial, sans-serif; font-size: 10px; fill: black; font-weight: bold;">Turnaround Hook Shot</tspan></text><text x="9" y="103.21917808219177" text-anchor="start"><tspan alignment-baseline="middle" x="9" style="font-family: Arial, sans-serif; font-size: 10px; fill: black; font-weight: bold;">Alley Oop Layup shot</tspan></text><text x="9" y="110.64840182648402" text-anchor="start"><tspan alignment-baseline="middle" x="9" style="font-family: Arial, sans-serif; font-size: 10px; fill: black; font-weight: bold;">Running Finger Roll Layup Shot</tspan></text><text x="9" y="118.42465753424659" text-anchor="start"><tspan alignment-baseline="middle" x="9" style="font-family: Arial, sans-serif; font-size: 10px; fill: black; font-weight: bold;">Tip Layup Shot</tspan></text><text x="9" y="126.72146118721463" text-anchor="start"><tspan alignment-baseline="middle" x="9" style="font-family: Arial, sans-serif; font-size: 10px; fill: black; font-weight: bold;">Driving Reverse Layup Shot</tspan></text><text x="516" y="89.58219178082189" text-anchor="end"><tspan alignment-baseline="middle" x="516" style="font-family: Arial, sans-serif; font-size: 10px; fill: black; font-weight: bold;">Right Corner 3</tspan></text><text x="9" y="136.0593607305936" text-anchor="start"><tspan alignment-baseline="middle" x="9" style="font-family: Arial, sans-serif; font-size: 10px; fill: black; font-weight: bold;">Putback Layup Shot</tspan></text><text x="516" y="99.26712328767124" text-anchor="end"><tspan alignment-baseline="middle" x="516" style="font-family: Arial, sans-serif; font-size: 10px; fill: black; font-weight: bold;">Left Corner 3</tspan></text><text x="9" y="146.43835616438355" text-anchor="start"><tspan alignment-baseline="middle" x="9" style="font-family: Arial, sans-serif; font-size: 10px; fill: black; font-weight: bold;">Running Pull-Up Jump Shot</tspan></text><text x="9" y="156.99086757990864" text-anchor="start"><tspan alignment-baseline="middle" x="9" style="font-family: Arial, sans-serif; font-size: 10px; fill: black; font-weight: bold;">Floating Jump shot</tspan></text><text x="9" y="167.7168949771689" text-anchor="start"><tspan alignment-baseline="middle" x="9" style="font-family: Arial, sans-serif; font-size: 10px; fill: black; font-weight: bold;">Cutting Dunk Shot</tspan></text><text x="9" y="178.78995433789947" text-anchor="start"><tspan alignment-baseline="middle" x="9" style="font-family: Arial, sans-serif; font-size: 10px; fill: black; font-weight: bold;">Driving Floating Bank Jump Shot</tspan></text><text x="9" y="190.21004566210038" text-anchor="start"><tspan alignment-baseline="middle" x="9" style="font-family: Arial, sans-serif; font-size: 10px; fill: black; font-weight: bold;">Reverse Layup Shot</tspan></text><text x="9" y="201.80365296803646" text-anchor="start"><tspan alignment-baseline="middle" x="9" style="font-family: Arial, sans-serif; font-size: 10px; fill: black; font-weight: bold;">Turnaround Jump Shot</tspan></text><text x="9" y="213.5707762557077" text-anchor="start"><tspan alignment-baseline="middle" x="9" style="font-family: Arial, sans-serif; font-size: 10px; fill: black; font-weight: bold;">Cutting Layup Shot</tspan></text><text x="9" y="225.8584474885844" text-anchor="start"><tspan alignment-baseline="middle" x="9" style="font-family: Arial, sans-serif; font-size: 10px; fill: black; font-weight: bold;">Driving Floating Jump Shot</tspan></text><text x="9" y="239.5342465753424" text-anchor="start"><tspan alignment-baseline="middle" x="9" style="font-family: Arial, sans-serif; font-size: 10px; fill: black; font-weight: bold;">Driving Finger Roll Layup Shot</tspan></text><text x="9" y="254.42465753424653" text-anchor="start"><tspan alignment-baseline="middle" x="9" style="font-family: Arial, sans-serif; font-size: 10px; fill: black; font-weight: bold;">Running Dunk Shot</tspan></text><text x="9" y="269.4885844748858" text-anchor="start"><tspan alignment-baseline="middle" x="9" style="font-family: Arial, sans-serif; font-size: 10px; fill: black; font-weight: bold;">Driving Dunk Shot</tspan></text><text x="9" y="286.80821917808214" text-anchor="start"><tspan alignment-baseline="middle" x="9" style="font-family: Arial, sans-serif; font-size: 10px; fill: black; font-weight: bold;">Turnaround Fadeaway shot</tspan></text><text x="9" y="308.81278538812774" text-anchor="start"><tspan alignment-baseline="middle" x="9" style="font-family: Arial, sans-serif; font-size: 10px; fill: black; font-weight: bold;">Running Layup Shot</tspan></text><text x="9" y="333.4200913242008" text-anchor="start"><tspan alignment-baseline="middle" x="9" style="font-family: Arial, sans-serif; font-size: 10px; fill: black; font-weight: bold;">Fadeaway Jump Shot</tspan></text><text x="9" y="358.8949771689497" text-anchor="start"><tspan alignment-baseline="middle" x="9" style="font-family: Arial, sans-serif; font-size: 10px; fill: black; font-weight: bold;">Layup Shot</tspan></text><text x="9" y="387.4931506849315" text-anchor="start"><tspan alignment-baseline="middle" x="9" style="font-family: Arial, sans-serif; font-size: 10px; fill: black; font-weight: bold;">Pullup Jump shot</tspan></text><text x="9" y="419.04109589041093" text-anchor="start"><tspan alignment-baseline="middle" x="9" style="font-family: Arial, sans-serif; font-size: 10px; fill: black; font-weight: bold;">Step Back Jump shot</tspan></text><text x="516" y="128.0388127853882" text-anchor="end"><tspan alignment-baseline="middle" x="516" style="font-family: Arial, sans-serif; font-size: 10px; fill: black; font-weight: bold;">In The Paint (Non-RA)</tspan></text><text x="9" y="462.21461187214607" text-anchor="start"><tspan alignment-baseline="middle" x="9" style="font-family: Arial, sans-serif; font-size: 10px; fill: black; font-weight: bold;">Driving Layup Shot</tspan></text><text x="516" y="184.39954337899547" text-anchor="end"><tspan alignment-baseline="middle" x="516" style="font-family: Arial, sans-serif; font-size: 10px; fill: black; font-weight: bold;">Mid-Range</tspan></text><text x="9" y="535.9269406392693" text-anchor="start"><tspan alignment-baseline="middle" x="9" style="font-family: Arial, sans-serif; font-size: 10px; fill: black; font-weight: bold;">Jump Shot</tspan></text><text x="516" y="271.81963470319636" text-anchor="end"><tspan alignment-baseline="middle" x="516" style="font-family: Arial, sans-serif; font-size: 10px; fill: black; font-weight: bold;">Above the Break 3</tspan></text><text x="269" y="154.23972602739727" text-anchor="start"><tspan alignment-baseline="middle" x="269" style="font-family: Arial, sans-serif; font-size: 10px; fill: black; font-weight: bold;">3PT Field Goal</tspan></text><text x="516" y="410.7739726027397" text-anchor="end"><tspan alignment-baseline="middle" x="516" style="font-family: Arial, sans-serif; font-size: 10px; fill: black; font-weight: bold;">Restricted Area</tspan></text><text x="776" y="190.67808219178085" text-anchor="end"><tspan alignment-baseline="middle" x="776" style="font-family: Arial, sans-serif; font-size: 10px; fill: black; font-weight: bold;">0</tspan></text><text x="776" y="385.67808219178085" text-anchor="end"><tspan alignment-baseline="middle" x="776" style="font-family: Arial, sans-serif; font-size: 10px; fill: black; font-weight: bold;">1</tspan></text><text x="269" y="349.2397260273973" text-anchor="start"><tspan alignment-baseline="middle" x="269" style="font-family: Arial, sans-serif; font-size: 10px; fill: black; font-weight: bold;">2PT Field Goal</tspan></text></g><g><text x="2.5" y="-3.9999999999998863" text-anchor="middle" style="font-family: Arial, sans-serif; font-size: 12px; fill: rgb(123, 123, 123); font-weight: bold;">Action type</text><text x="522.5" y="83.49999999999997" text-anchor="middle" style="font-family: Arial, sans-serif; font-size: 12px; fill: rgb(123, 123, 123); font-weight: bold;">Shot zone</text><text x="262.5" y="93.5" text-anchor="middle" style="font-family: Arial, sans-serif; font-size: 12px; fill: rgb(123, 123, 123); font-weight: bold;">Shot type</text><text x="782.5" y="93.5" text-anchor="middle" style="font-family: Arial, sans-serif; font-size: 12px; fill: rgb(123, 123, 123); font-weight: bold;">SHOT_MADE_FLAG</text></g></g></svg>